<?xml version="1.0" encoding="UTF-8" standalone="no"?>
<svg
   xmlns:dc="http://purl.org/dc/elements/1.1/"
   xmlns:cc="http://creativecommons.org/ns#"
   xmlns:rdf="http://www.w3.org/1999/02/22-rdf-syntax-ns#"
   xmlns:svg="http://www.w3.org/2000/svg"
   xmlns="http://www.w3.org/2000/svg"
   xmlns:sodipodi="http://sodipodi.sourceforge.net/DTD/sodipodi-0.dtd"
   xmlns:inkscape="http://www.inkscape.org/namespaces/inkscape"
   version="1.1"
   x="0px"
   y="0px"
   width="100px"
   height="100px"
   viewBox="0 0 100 100"
   enable-background="new 0 0 100 100"
   xml:space="preserve"
   id="svg2"
   inkscape:version="0.91 r13725"
   sodipodi:docname="scroll.svg"><metadata
     id="metadata28"><rdf:RDF><cc:Work
         rdf:about=""><dc:format>image/svg+xml</dc:format><dc:type
           rdf:resource="http://purl.org/dc/dcmitype/StillImage" /><dc:title></dc:title></cc:Work></rdf:RDF></metadata><defs
     id="defs26" /><sodipodi:namedview
     pagecolor="#ffffff"
     bordercolor="#666666"
     borderopacity="1"
     objecttolerance="10"
     gridtolerance="10"
     guidetolerance="10"
     inkscape:pageopacity="0"
     inkscape:pageshadow="2"
     inkscape:window-width="1440"
     inkscape:window-height="851"
     id="namedview24"
     showgrid="false"
     inkscape:zoom="6.44"
     inkscape:cx="38.964175"
     inkscape:cy="71.401391"
     inkscape:window-x="0"
     inkscape:window-y="0"
     inkscape:window-maximized="1"
     inkscape:current-layer="svg2" /><g
     id="g3782"
     inkscape:export-filename="/Users/victorzhou/Google Drive/Custom Backups/image base/icons/scroll/scroll@3x.png"
     inkscape:export-xdpi="90"
     inkscape:export-ydpi="90"
     transform="matrix(4.9575868,0,0,4.9575868,-197.97595,-196.98131)"
     style="stroke:#cd3333;stroke-opacity:1"><g
       transform="matrix(0.21258001,0,0,0.21258001,39.370999,39.371787)"
       id="Captions"
       style="stroke:#cd3333;stroke-opacity:1" /><path
       style="fill:#ffffff;fill-opacity:1;stroke:#cd3333;stroke-opacity:1"
       d="m 46.196305,44.573407 c 0,0.399438 -0.323334,0.723197 -0.722772,0.723197 -0.399012,0 -0.722772,-0.323759 -0.722772,-0.723197 0,-0.398587 0.32376,-0.722347 0.722772,-0.722347 0.399438,-2.12e-4 0.722772,0.32376 0.722772,0.722347 z"
       id="path6"
       inkscape:connector-curvature="0" /><path
       style="fill:#ffffff;fill-opacity:1;stroke:#cd3333;stroke-opacity:1"
       d="m 46.196305,47.224067 c 0,0.399651 -0.323334,0.722347 -0.722772,0.722347 -0.399012,0 -0.722772,-0.322909 -0.722772,-0.722347 0,-0.399012 0.32376,-0.722346 0.722772,-0.722346 0.399438,0 0.722772,0.323546 0.722772,0.722346 z"
       id="path8"
       inkscape:connector-curvature="0" /><circle
       style="fill:#ffffff;fill-opacity:1;stroke:#cd3333;stroke-opacity:1"
       transform="matrix(0.21258001,0,0,0.21258001,39.370999,39.371787)"
       cx="28.707001"
       cy="49.408001"
       r="3.4000001"
       id="circle10" /><path
       style="fill:#ffffff;fill-opacity:1;stroke:#cd3333;stroke-opacity:1"
       d="m 52.732503,45.226453 -4.849588,0 c -0.359898,0 -0.652408,-0.292085 -0.652408,-0.653046 0,-0.36011 0.29251,-0.652195 0.652408,-0.652195 l 4.849588,0 c 0.360536,0 0.652408,0.292085 0.652408,0.652195 2.13e-4,0.360961 -0.29166,0.653046 -0.652408,0.653046 z"
       id="path12"
       inkscape:connector-curvature="0" /><path
       style="fill:#ffffff;fill-opacity:1;stroke:#cd3333;stroke-opacity:1"
       d="m 52.732503,47.877326 -4.849588,0 c -0.359898,0 -0.652408,-0.29251 -0.652408,-0.653046 0,-0.360536 0.29251,-0.653046 0.652408,-0.653046 l 4.849588,0 c 0.360536,0 0.652408,0.29251 0.652408,0.653046 0,0.360536 -0.29166,0.653046 -0.652408,0.653046 z"
       id="path14"
       inkscape:connector-curvature="0" /><path
       style="fill:#ffffff;fill-opacity:1;stroke:#cd3333;stroke-opacity:1"
       d="m 52.732503,50.527773 -4.849588,0 c -0.359898,0 -0.652408,-0.29251 -0.652408,-0.65262 0,-0.361174 0.29251,-0.653046 0.652408,-0.653046 l 4.849588,0 c 0.360536,0 0.652408,0.291872 0.652408,0.653046 2.13e-4,0.36011 -0.29166,0.65262 -0.652408,0.65262 z"
       id="path16"
       inkscape:connector-curvature="0" /><circle
       style="fill:#ffffff;fill-opacity:1;stroke:#cd3333;stroke-opacity:1"
       transform="matrix(0.21258001,0,0,0.21258001,39.370999,39.371787)"
       cx="28.707001"
       cy="61.102001"
       r="3.4000001"
       id="circle18" /><path
       style="fill:#ffffff;fill-opacity:1;stroke:#cd3333;stroke-opacity:1"
       d="m 52.732503,53.013897 -4.849588,0 c -0.359898,0 -0.652408,-0.292298 -0.652408,-0.653046 0,-0.360536 0.29251,-0.652408 0.652408,-0.652408 l 4.849588,0 c 0.360536,0 0.652408,0.291872 0.652408,0.652408 2.13e-4,0.360748 -0.29166,0.653046 -0.652408,0.653046 z"
       id="path20"
       inkscape:connector-curvature="0" /><path
       style="fill:#ffffff;fill-opacity:1;stroke:#cd3333;stroke-opacity:1"
       d="m 59.5661,44.229665 c 0,-2.357937 -0.870728,-3.228665 -1.945532,-3.228665 l -13.232256,0 c -1.105203,0 -2.005054,0.899001 -2.005054,2.005267 l 0,12.60557 -0.0038,0 -1.945532,0 c 0,2.94402 1.086496,3.389163 2.428089,3.389163 l 1.526324,0 8.529773,0 1.551197,0 c 1.106053,0 2.005479,-0.899001 2.005479,-2.005267 l 0,-12.766068 3.091312,0 z M 55.672272,56.99552 c 0,0.66325 -0.539528,1.20299 -1.20299,1.20299 -1.073955,0 -1.623686,-0.229161 -1.623686,-2.587098 l -2.801592,0 -6.858257,0 0,-12.605357 c 0,-0.66325 0.538678,-1.20299 1.202353,-1.20299 l 11.813496,0 c -0.31802,0.504027 -0.516144,1.266976 -0.52486,2.355811 -0.0026,0.02445 -0.0047,0.04889 -0.0047,0.07079 l 0,12.765854 z"
       id="path22"
       inkscape:connector-curvature="0" /></g></svg>