<?xml version="1.0" encoding="UTF-8" standalone="no"?>
<svg
   xmlns:dc="http://purl.org/dc/elements/1.1/"
   xmlns:cc="http://creativecommons.org/ns#"
   xmlns:rdf="http://www.w3.org/1999/02/22-rdf-syntax-ns#"
   xmlns:svg="http://www.w3.org/2000/svg"
   xmlns="http://www.w3.org/2000/svg"
   xmlns:sodipodi="http://sodipodi.sourceforge.net/DTD/sodipodi-0.dtd"
   xmlns:inkscape="http://www.inkscape.org/namespaces/inkscape"
   version="1.1"
   id="Layer_1"
   x="0px"
   y="0px"
   width="100px"
   height="100px"
   viewBox="0 0 100 100"
   enable-background="new 0 0 100 100"
   xml:space="preserve"
   inkscape:version="0.91 r13725"
   sodipodi:docname="transactions.svg"><metadata
     id="metadata23"><rdf:RDF><cc:Work
         rdf:about=""><dc:format>image/svg+xml</dc:format><dc:type
           rdf:resource="http://purl.org/dc/dcmitype/StillImage" /><dc:title></dc:title></cc:Work></rdf:RDF></metadata><defs
     id="defs21" /><sodipodi:namedview
     pagecolor="#ffffff"
     bordercolor="#666666"
     borderopacity="1"
     objecttolerance="10"
     gridtolerance="10"
     guidetolerance="10"
     inkscape:pageopacity="0"
     inkscape:pageshadow="2"
     inkscape:window-width="1440"
     inkscape:window-height="851"
     id="namedview19"
     showgrid="false"
     inkscape:zoom="5.2040405"
     inkscape:cx="55.386757"
     inkscape:cy="60.247913"
     inkscape:window-x="0"
     inkscape:window-y="0"
     inkscape:window-maximized="1"
     inkscape:current-layer="Layer_1" /><g
     id="g3787"
     transform="matrix(2,0,0,2,-3.1124878e-7,-100)"
     inkscape:export-filename="/Users/victorzhou/Google Drive/Custom Backups/image base/icons/transactions/transactions@3x.png"
     inkscape:export-xdpi="90"
     inkscape:export-ydpi="90"
     style="stroke:#cd3333;stroke-opacity:1"><path
       style="fill:#ffffff;fill-opacity:1;stroke:#cd3333;stroke-opacity:1"
       d="m 26.940888,73.601656 c -2.727,-0.983 -3.837,-1.681 -3.837,-2.696 0,-0.888 0.667,-1.807 2.728,-1.807 2.283,0 3.772,0.729 4.566,1.109 l 0.951,-3.583 c -1.109,-0.507 -2.536,-0.982 -4.629,-1.046 l 0,-2.791 -3.108,0 0,3.013 c -3.393,0.634 -5.359,2.822 -5.359,5.644 0,3.076 2.315,4.662 5.708,5.803 2.379,0.793 3.393,1.554 3.393,2.759 0,1.236 -1.237,1.966 -3.076,1.966 -2.061,0 -3.932,-0.666 -5.264,-1.396 l -0.951,3.71 c 1.205,0.666 3.266,1.269 5.391,1.363 l 0,3.013 3.139,0 0,-3.267 c 3.647,-0.602 5.613,-3.012 5.613,-5.834 -0.001,-2.885 -1.491,-4.628 -5.265,-5.96 z"
       id="path11"
       inkscape:connector-curvature="0" /><circle
       transform="matrix(1.3081521,0,0,1.3081521,-23.200657,8.5989651)"
       id="path3785"
       style="fill:none;stroke:#cd3333;stroke-width:2;stroke-miterlimit:4;stroke-dasharray:none;stroke-opacity:1"
       cx="36.846371"
       cy="50.759415"
       r="18.110928" /></g></svg>