<?xml version="1.0" standalone="no"?>
<!DOCTYPE svg PUBLIC "-//W3C//DTD SVG 1.1//EN" "http://www.w3.org/Graphics/SVG/1.1/DTD/svg11.dtd" >
<svg xmlns="http://www.w3.org/2000/svg" xmlns:xlink="http://www.w3.org/1999/xlink" version="1.1">
<metadata></metadata>
<defs>
<font id="lh_line1_sansthin" horiz-adv-x="1230" >
<font-face units-per-em="2048" ascent="1638" descent="-410" />
<missing-glyph horiz-adv-x="626" />
<glyph horiz-adv-x="0" />
<glyph horiz-adv-x="682" />
<glyph unicode=" "  horiz-adv-x="626" />
<glyph unicode="&#x09;" horiz-adv-x="626" />
<glyph unicode="&#xa0;" horiz-adv-x="626" />
<glyph unicode="!" horiz-adv-x="456" d="M0 49v72q0 53 53 53t53 -53v-72q0 -53 -53 -53t-53 53zM0 428v1153q0 53 53 53t53 -53v-1153q0 -53 -53 -53t-53 53z" />
<glyph unicode="&#x22;" horiz-adv-x="714" d="M0 1343v234q0 61 61 61q62 0 62 -61v-234q0 -61 -62 -61q-61 0 -61 61zM260 1343v234q0 61 62 61q61 0 61 -61v-234q0 -61 -61 -61q-62 0 -62 61z" />
<glyph unicode="#" horiz-adv-x="1552" d="M-82 582q0 59 59 59h336v365h-336q-59 0 -59 59q0 61 59 61h336v390q0 61 62 61q59 0 59 -61v-390h365v390q0 61 59 61q62 0 62 -61v-390h270q59 0 59 -61q0 -59 -59 -59h-270v-365h270q59 0 59 -59q0 -62 -59 -62h-270v-393q0 -59 -62 -59q-59 0 -59 59v393h-365v-393 q0 -59 -59 -59q-62 0 -62 59v393h-336q-59 0 -59 62zM434 641h365v365h-365v-365z" />
<glyph unicode="$" horiz-adv-x="1056" d="M20 426q-22 49 25 70q49 22 70 -25q35 -75 104.5 -119.5t151.5 -44.5h43q87 0 168 66q80 65 80 151q0 116 -80 178q-59 47 -217 99q-168 56 -220 96q-106 75 -106 213q0 129 82.5 211t216.5 88v147q0 54 53 54q51 0 51 -54v-149q181 -15 260 -164q25 -48 -22 -72 q-48 -25 -72 21q-61 113 -213 113h-43q-95 0 -152 -52.5t-57 -142.5q0 -82 70 -131q40 -29 184 -78q178 -59 246 -113q123 -94 123 -264q0 -126 -102 -221q-94 -88 -222 -100v-6v-174q0 -52 -51 -52q-53 0 -53 52v174q0 6 2 8q-104 7 -190.5 67t-129.5 154z" />
<glyph unicode="%" horiz-adv-x="1959" d="M-2 1284q0 138 94 232q96 96 234 96q135 0 231 -96t96 -232q0 -135 -96 -231q-97 -97 -231 -97q-137 0 -234 97q-94 94 -94 231zM113 1284q0 -88 62.5 -150.5t150.5 -62.5t150.5 62.5t62.5 150.5t-62.5 150.5t-150.5 62.5t-150.5 -62.5t-62.5 -150.5zM344 51q0 16 8 27 l858 1521q16 29 50 29q57 0 57 -55q0 -18 -8 -29l-856 -1521q-16 -29 -52 -29q-57 0 -57 57zM1034 352q0 134 96 230t232 96q135 0 231 -96q97 -97 97 -230q0 -136 -97 -233q-94 -94 -231 -94q-138 0 -232 94q-96 96 -96 233zM1149 352q0 -90 62.5 -151.5t150.5 -61.5 q91 0 152 61t61 152q0 88 -61.5 149.5t-151.5 61.5q-88 0 -150.5 -61.5t-62.5 -149.5z" />
<glyph unicode="&#x26;" horiz-adv-x="1615" d="M-2 453q-3 249 145 376q42 37 109 66q-160 109 -160 330q0 168 123 282q125 113 309 113h27q140 0 256 -84q22 -16 22 -45q0 -55 -55 -55q-18 0 -35 10q-81 63 -188 63h-27q-138 0 -229 -82q-92 -83 -92 -202q0 -136 76 -209q69 -69 186 -84q29 0 61 -4q50 -9 47 -58 q-3 -50 -53 -53q-11 0 -61 4q-157 -3 -244 -78q-109 -92 -106 -288q0 -135 98 -244q101 -113 262 -113h33q201 0 286 97q74 81 74 219v6v469h-33q-57 0 -57 57q0 55 57 55h33v187q0 55 56 55q55 0 55 -55v-187h219q55 0 55 -55q0 -57 -55 -57h-219v-469q0 -193 127 -273 q83 -53 200 -53q58 0 58 -57q0 -55 -58 -55q-275 0 -385 204q-107 -198 -413 -198h-33q-196 0 -334 135q-134 134 -137 330z" />
<glyph unicode="'" horiz-adv-x="460" d="M0 1364v201q0 61 61 61q62 0 62 -61v-201q0 -59 -62 -59q-61 0 -61 59z" />
<glyph unicode="(" horiz-adv-x="700" d="M16 741q0 354 140 650q71 151 149 235q34 39 72 4t4 -71q-65 -74 -133 -216q-129 -276 -129 -602q0 -330 131 -632q68 -156 133 -240q30 -40 -8 -72q-17 -10 -33 -10q-25 0 -39 20q-75 92 -147 263q-140 324 -140 671z" />
<glyph unicode=")" horiz-adv-x="718" d="M20 -147q68 88 134 239q131 302 131 631q0 325 -129 604q-67 140 -133 215q-34 37 4 72q36 34 71 -4q74 -80 150 -238q139 -298 139 -649q0 -348 -139 -670q-68 -160 -148 -264q-15 -18 -39 -18q-15 0 -32 10q-40 30 -9 72z" />
<glyph unicode="*" horiz-adv-x="1107" d="M20 1001q0 35 31 54l240 137l-240 139q-31 19 -31 53q0 60 62 60q18 0 31 -8l237 -138v277q0 61 62 61q61 0 61 -61v-277l240 138q13 8 30 8q60 0 60 -60q0 -34 -31 -53l-237 -139l237 -137q31 -19 31 -54q0 -59 -60 -59q-17 0 -30 8l-240 137v-276q0 -61 -61 -61 q-62 0 -62 61v276l-237 -137q-13 -8 -31 -8q-62 0 -62 59z" />
<glyph unicode="+" horiz-adv-x="1236" d="M-8 762q0 61 61 61h371v371q0 61 61 61q62 0 62 -61v-371h371q61 0 61 -61q0 -62 -61 -62h-371v-372q0 -60 -62 -60q-61 0 -61 60v372h-371q-61 0 -61 62z" />
<glyph unicode="," horiz-adv-x="458" d="M8 -137v274q0 62 62 62q61 0 61 -62v-274q0 -60 -61 -60q-62 0 -62 60z" />
<glyph unicode="-" horiz-adv-x="894" d="M2 698q0 62 61 62h435q61 0 61 -62q0 -61 -61 -61h-435q-61 0 -61 61z" />
<glyph unicode="." horiz-adv-x="454" d="M0 49v31q0 61 61 61q62 0 62 -61v-31q0 -61 -62 -61q-61 0 -61 61z" />
<glyph unicode="/" horiz-adv-x="942" d="M-10 -4l575 1542q18 47 66 29q47 -15 28 -64l-575 -1542q-11 -33 -47 -33q-26 0 -41 21.5t-6 46.5z" />
<glyph unicode="0" horiz-adv-x="1626" d="M289 477v707q0 204 147 348q151 145 359 145h34q237 0 390 -176q116 -128 116 -317v-707q0 -207 -149 -350q-148 -145 -357 -145h-34q-229 0 -381 168q-125 137 -125 327zM397 477q0 -104 49 -192l664 1173q-115 115 -281 115h-34q-163 0 -281 -115q-117 -114 -117 -274 v-707zM522 197q114 -111 273 -111h34q166 0 281 115q117 114 117 276v707q0 97 -45 180z" />
<glyph unicode="1" horiz-adv-x="1130" d="M297 1375q1 23 18 36l269 236q28 24 57 8q33 -13 33 -49v-1555q0 -22 -16.5 -37.5t-39.5 -15.5q-22 0 -37.5 15.5t-15.5 37.5v1436l-178 -158q-17 -14 -39 -12.5t-37 18.5t-14 40z" />
<glyph unicode="2" horiz-adv-x="1626" d="M297 47q-6 69 14 158q40 178 174 336q47 58 148 133q53 41 176 123q201 129 285 213q108 108 108 223q0 81 -53 176q-112 154 -305 154h-68q-192 0 -307 -160q-33 -42 -76 -12q-45 31 -12 75q142 201 395 201h68q251 0 395 -203q70 -122 70 -233q0 -156 -142 -301 q-86 -86 -299 -223q-228 -148 -303 -236q-147 -172 -162 -362h875q53 0 53 -56q0 -53 -53 -53h-928q-47 0 -53 47z" />
<glyph unicode="3" horiz-adv-x="1626" d="M315 1300q41 161 172 265t304 104h30q199 0 326 -115q128 -113 131 -286q3 -242 -139 -375q-35 -35 -74 -55q71 -27 125 -78q123 -117 123 -322q0 -189 -139 -319q-138 -129 -353 -129h-30q-167 0 -299 102q-131 102 -175 258q-15 54 37 66q51 15 66 -37 q34 -125 136.5 -205t234.5 -80h30q169 0 277 99t108 245q0 154 -90 244q-79 79 -215 94q-41 4 -90 4q-49 3 -49 51q3 54 51 54h35q130 0 219 86q105 99 102 297q0 124 -98 209q-99 86 -250 86h-30q-135 0 -236 -82q-103 -83 -137 -207q-9 -52 -64 -39q-51 14 -39 65z" />
<glyph unicode="4" horiz-adv-x="1626" d="M293 457q-15 27 0 53l627 1128q22 43 69 19q45 -25 21 -72l-580 -1046h541v557q0 53 55 53q51 0 51 -53v-557h213q51 0 51 -56q0 -51 -51 -51h-213v-377q0 -53 -51 -53q-55 0 -55 53v377h-631q-31 0 -47 25z" />
<glyph unicode="5" horiz-adv-x="1626" d="M338 287q-22 49 29 71q48 21 69 -28q47 -109 140 -171.5t206 -62.5h31q151 0 264 125t113 289v63q0 166 -111 283t-266 117h-31q-131 0 -235 -72q-57 -39 -84 -80q-23 -33 -60 -20q-38 11 -38 51v758q0 51 53 51h758q55 0 55 -51q0 -54 -55 -54h-703v-579 q137 104 309 104h31q197 0 340 -149q143 -152 143 -359v-63q0 -212 -143 -367t-340 -155h-31q-146 0 -267 82t-177 217z" />
<glyph unicode="6" horiz-adv-x="1626" d="M303 463v706q0 208 143 351q145 145 349 145h34q139 0 259 -74.5t182 -197.5q25 -47 -23 -72q-45 -21 -69 25q-53 98 -146.5 155.5t-202.5 57.5h-34q-160 0 -275 -115q-112 -112 -112 -275v-274q150 188 387 188h34q202 0 347 -145q147 -144 147 -346v-113 q0 -204 -147 -348q-143 -143 -347 -143h-34q-192 0 -342 141t-150 334zM408 479q0 -160 112 -272q115 -115 275 -115h34q158 0 273 115q117 114 117 272v113q0 152 -117 272q-117 117 -273 117h-34q-161 0 -275 -117q-112 -112 -112 -272v-113z" />
<glyph unicode="7" horiz-adv-x="1626" d="M309 1606q0 53 53 53h900q30 0 45.5 -24.5t3.5 -53.5l-668 -1548q-14 -33 -49 -33q-30 0 -46.5 23.5t-4.5 52.5l635 1474h-816q-53 0 -53 56z" />
<glyph unicode="8" horiz-adv-x="1626" d="M311 436v45q0 126 66 233t176 165q-197 117 -197 346v39q0 165 119 284q122 119 285 119h104q166 0 285 -119q119 -116 119 -284v-39q0 -229 -199 -346q111 -58 177.5 -165t66.5 -233v-45q0 -182 -133 -315q-131 -131 -314 -131h-108q-185 0 -316 131t-131 315zM418 436 q0 -139 100 -239q101 -101 240 -101h108q142 0 240 101q100 100 100 239v45q0 140 -100 240q-97 100 -240 100h-108q-140 0 -240 -100t-100 -240v-45zM465 1225q0 -122 86 -211q86 -86 209 -86h104q126 0 209 86q86 86 86 211v39q0 125 -86 211t-209 86h-104 q-123 0 -209 -86t-86 -211v-39z" />
<glyph unicode="9" horiz-adv-x="1626" d="M295 1083v82q0 210 145 355q147 147 355 147h34q188 0 330 -127t166 -307q4 -12 4 -37v-637q0 -325 -182 -469q-122 -98 -318 -98h-34q-142 0 -262.5 74t-184.5 204q-23 51 23 72q49 24 71 -25q55 -101 148.5 -160t204.5 -59h34q394 0 394 461v215q-149 -192 -394 -192 h-34q-208 0 -355 147q-145 151 -145 354zM401 1083q0 -162 115 -280q115 -115 279 -115h34q167 0 279 115q115 115 115 280v82q0 164 -115 279q-114 117 -279 117h-34q-162 0 -279 -117q-115 -115 -115 -279v-82z" />
<glyph unicode=":" horiz-adv-x="448" d="M0 59v52q0 61 61 61q62 0 62 -61v-52q0 -61 -62 -61q-61 0 -61 61zM0 784v52q0 61 61 61q62 0 62 -61v-52q0 -61 -62 -61q-61 0 -61 61z" />
<glyph unicode=";" horiz-adv-x="456" d="M0 117q0 61 61 61q62 0 62 -61v-250q0 -62 -62 -62q-61 0 -61 62v250zM0 791v51q0 61 61 61q62 0 62 -61v-51q0 -62 -62 -62q-61 0 -61 62z" />
<glyph unicode="&#x3c;" horiz-adv-x="1859" d="M6 732q0 25 19 44l716 727q19 15 43 15t43 -15q12 -19 12 -43t-12 -37l-626 -635h1468q23 0 39 -16t16 -41q0 -22 -16.5 -38.5t-38.5 -16.5h-1468l622 -613q12 -17 12 -40.5t-12 -38.5q-22 -19 -43 -19q-27 0 -43 19l-712 708q-19 15 -19 40z" />
<glyph unicode="=" horiz-adv-x="1359" d="M10 559q0 55 53 55h979q54 0 54 -55q0 -53 -54 -53h-979q-53 0 -53 53zM10 1010q0 55 53 55h979q54 0 54 -55q0 -54 -54 -54h-979q-53 0 -53 54z" />
<glyph unicode="&#x3e;" horiz-adv-x="2000" d="M0 731q0 25 16 41t39 16h1469l-627 635q-12 13 -12 37t12 43q19 15 43 15t43 -15l717 -727q19 -19 19 -44t-19 -40l-713 -708q-16 -19 -43 -19q-21 0 -43 19q-12 15 -12 38.5t12 40.5l623 613h-1469q-22 0 -38.5 16.5t-16.5 38.5z" />
<glyph unicode="?" d="M-4 1456q0 23 14 37q144 176 414 176h65q199 0 332 -121t133 -303q0 -224 -112 -354q-70 -82 -230 -168q-115 -62 -157 -107q-62 -71 -62 -176q0 -57 -61 -57q-60 0 -60 57q0 149 95 252q49 55 186 131q135 78 195 144q92 109 92 278q0 119 -92 211q-104 96 -259 96h-65 q-211 0 -326 -133q-14 -20 -45 -20q-57 0 -57 57zM264 61v80q0 66 68 66q69 0 69 -66v-80q0 -65 -69 -65q-68 0 -68 65z" />
<glyph unicode="@" horiz-adv-x="1800" d="M6 279v456q0 245 174 416q174 174 418 174h270q247 0 418 -174q174 -171 174 -416v-692q0 -111 -80 -176q-66 -51 -153 -51q-91 0 -162 47q-94 61 -94 180v92q-101 -84 -221 -84h-35q-143 0 -242 99q-98 98 -98 239v240q0 139 98 237q101 101 242 101h35q136 0 237 -101 q100 -100 100 -237v-586q0 -66 66 -94q35 -15 74 -15q116 3 116 109v692q0 195 -139 334t-336 139h-270q-197 0 -336 -139q-137 -137 -137 -334v-456q0 -197 137 -334q140 -140 336 -140q59 0 59 -59t-59 -59q-244 0 -418 174q-174 171 -174 418zM494 389q0 -92 64.5 -155.5 t156.5 -63.5h35q92 0 156.5 63.5t64.5 155.5v240q0 87 -66 153t-155 66h-35q-92 0 -158 -66q-63 -63 -63 -153v-240z" />
<glyph unicode="A" horiz-adv-x="1552" d="M8 51q0 9 4 21l570 1552q11 35 45 35h6q37 0 49 -35l590 -1550q4 -12 4 -23q0 -53 -53 -53q-40 0 -52 35l-151 403h-758l-147 -403q-12 -35 -54 -35q-53 0 -53 53zM303 545h674l-344 907z" />
<glyph unicode="B" horiz-adv-x="1392" d="M2 51v1555q0 53 53 53h492q230 0 358 -125q113 -107 113 -277v-43q0 -229 -211 -337q124 -57 197 -161.5t73 -228.5v-51q0 -180 -147 -309q-145 -127 -352 -127h-523q-53 0 -53 51zM111 106h467q159 0 276 97q115 100 115 233v51q0 139 -115 234q-116 96 -276 96h-467 v-711zM111 926h436q161 0 261.5 79.5t100.5 208.5v43q0 135 -98.5 215t-263.5 80h-436v-626z" />
<glyph unicode="C" horiz-adv-x="1382" d="M0 516v621q0 223 156 379q157 157 381 157h59q210 0 362 -143q154 -142 172 -348v-6q0 -51 -51 -54h-5q-46 0 -52 52q-12 160 -137 276q-122 113 -289 113h-59q-179 0 -304 -125q-122 -125 -122 -301v-621q0 -176 122 -301q125 -125 304 -125h59q166 0 287 109 q122 113 137 276q5 50 51 50q5 0 10 -1q50 -3 50 -50q0 -5 -1 -11q-18 -203 -174 -344q-149 -137 -360 -137h-59q-226 0 -381 155q-156 156 -156 379z" />
<glyph unicode="D" horiz-adv-x="1445" d="M2 53v1557q0 53 53 53h520q217 0 373 -156t156 -372v-609q0 -219 -156 -372q-154 -154 -373 -154h-520q-53 0 -53 53zM111 109h464q175 0 297 122q123 123 123 295v609q0 177 -123 297q-122 122 -297 122h-464v-1445z" />
<glyph unicode="E" d="M-2 51v1555q0 55 53 55h932q53 0 53 -55q0 -54 -53 -54h-874v-659h694q51 0 51 -55q0 -52 -51 -52h-694v-680h874q53 0 53 -55q0 -53 -53 -53h-932q-53 0 -53 53z" />
<glyph unicode="F" horiz-adv-x="1067" d="M0 49v1555q0 55 53 55h930q53 0 53 -55q0 -54 -53 -54h-874v-620h692q55 0 55 -53q0 -54 -55 -54h-692v-774q0 -51 -56 -51q-53 0 -53 51z" />
<glyph unicode="G" horiz-adv-x="1417" d="M0 524v617q0 221 158 379q155 155 377 155h63q158 0 330 -102q179 -147 182 -295v-5q0 -52 -55 -52q-39 0 -51 43q-42 136 -154 217q-115 86 -252 86h-63q-177 0 -302 -125q-124 -124 -124 -301v-617q0 -179 124 -303q126 -123 302 -123h63q173 0 295 119 q127 124 127 295v145h-301q-57 0 -57 54q0 57 57 57h354q55 0 55 -57v-203q0 -216 -161 -371q-152 -149 -369 -149h-63q-222 0 -377 155q-158 158 -158 381z" />
<glyph unicode="H" horiz-adv-x="1456" d="M2 55v1551q0 53 53 53q56 0 56 -53v-721h882v721q0 53 56 53q55 0 55 -53v-1551q0 -53 -55 -53q-56 0 -56 53v721h-882v-721q0 -53 -56 -53q-53 0 -53 53z" />
<glyph unicode="I" horiz-adv-x="460" d="M0 53v1553q0 53 53 53q56 0 56 -53v-1553q0 -53 -56 -53q-53 0 -53 53z" />
<glyph unicode="J" horiz-adv-x="991" d="M4 51q0 51 55 51h58q175 0 295 123q123 126 123 299v1080q0 55 55 55t55 -55v-1080q0 -218 -156 -374q-154 -154 -372 -154h-58q-55 0 -55 55z" />
<glyph unicode="K" horiz-adv-x="1290" d="M0 53v1551q0 23 16 39t39 16q22 0 38 -16t16 -39v-721h284l504 751q12 19 34 24t42 -7q19 -12 24 -33.5t-8 -42.5l-502 -748l502 -745q13 -21 8 -42.5t-24 -33.5q-16 -8 -29 -8q-31 0 -47 25l-504 751h-284v-721q0 -23 -16 -39t-38 -16q-23 0 -39 16t-16 39z" />
<glyph unicode="L" horiz-adv-x="1198" d="M0 53v1555q0 53 53 53q56 0 56 -53v-1499h870q55 0 55 -56q0 -53 -55 -53h-926q-53 0 -53 53z" />
<glyph unicode="M" horiz-adv-x="1652" d="M0 49v1559q0 38 35 47q10 4 20 4q23 0 39 -23l561 -782l549 782q14 24 37 24q10 0 23 -5q36 -9 36 -47v-1559q0 -49 -51 -49q-53 0 -53 49v1395l-500 -709q-16 -22 -41 -22q-27 0 -43 22l-508 711v-1397q0 -49 -53 -49q-51 0 -51 49z" />
<glyph unicode="N" horiz-adv-x="1490" d="M0 55v1551q0 40 37 49q9 2 17 2q26 0 42 -23l940 -1411v1383q0 51 51 51q52 0 52 -51v-1555q0 -51 -52 -51q-29 0 -45 23l-938 1411v-1379q0 -55 -53 -55q-51 0 -51 55z" />
<glyph unicode="O" horiz-adv-x="1464" d="M0 520v615q0 220 156 376q158 158 379 158h59q220 0 375 -158q155 -155 155 -376v-615q0 -224 -155 -379q-152 -155 -375 -155h-59q-224 0 -379 155q-156 156 -156 379zM111 520q0 -179 122 -301q123 -123 302 -123h59q177 0 297 123q123 126 123 301v615q0 173 -123 299 q-122 125 -297 125h-59q-177 0 -302 -125q-122 -122 -122 -299v-615z" />
<glyph unicode="P" horiz-adv-x="1282" d="M0 51v1555q0 55 53 55h500q206 0 344 -129q137 -125 137 -324v-49q0 -188 -137 -319q-138 -129 -344 -129h-447v-660q0 -53 -53 -53t-53 53zM106 815h447q161 0 268 96q107 98 107 248v49q0 150 -107 248q-109 98 -268 98h-447v-739z" />
<glyph unicode="Q" horiz-adv-x="1624" d="M0 514v619q0 220 156 376q158 158 379 158h59q221 0 379 -158q155 -155 155 -376v-619q0 -259 -213 -424h361q55 0 55 -55q0 -53 -55 -53h-741q-224 0 -379 155q-156 156 -156 377zM111 514q0 -176 122 -301q123 -123 302 -123h59q176 0 299 123q125 125 125 301v619 q0 174 -125 299q-124 124 -299 124h-59q-181 0 -302 -124q-122 -122 -122 -299v-619z" />
<glyph unicode="R" horiz-adv-x="1372" d="M0 51v1551q0 55 55 55h512q211 0 342 -125q131 -122 131 -322v-51q0 -147 -77.5 -258.5t-212.5 -155.5l307 -673q11 -26 -3.5 -51t-45.5 -25q-36 0 -50 33l-317 688q-25 -2 -74 -2h-458v-664q0 -55 -54 -55q-55 0 -55 55zM109 823h458q160 0 260 95q101 94 101 241v51 q0 153 -99.5 246.5t-261.5 93.5h-458v-727z" />
<glyph unicode="S" horiz-adv-x="1282" d="M-29 293q-12 26 3 51t44 25q34 0 50 -29q54 -113 158 -179.5t227 -66.5h61q134 0 250 96q125 101 125 234q0 183 -137 283q-94 66 -299 133q-229 77 -308 135q-145 106 -145 289q0 177 119 290q121 115 307 115h63q294 0 416 -229q9 -18 9 -32q0 -26 -29 -40 q-18 -11 -33 -11q-26 0 -43 32q-91 172 -320 172h-63q-141 0 -229 -83t-88 -214q0 -133 100 -205q63 -47 276 -117q234 -75 340 -154q170 -132 170 -364q0 -179 -151 -309q-151 -127 -330 -127h-61q-154 0 -286 83t-196 222z" />
<glyph unicode="T" horiz-adv-x="1132" d="M0 1608q0 53 53 53h1104q55 0 55 -53q0 -56 -55 -56h-498v-1499q0 -53 -53 -53t-53 53v1499h-500q-53 0 -53 56z" />
<glyph unicode="U" horiz-adv-x="1472" d="M0 518v1086q0 55 55 55q58 0 58 -55v-1086q0 -178 123 -301t299 -123h57q176 0 299 123q125 125 125 301v1086q0 55 57 55q53 0 53 -55v-1086q0 -222 -157 -379q-155 -155 -377 -155h-57q-222 0 -377 155q-158 158 -158 379z" />
<glyph unicode="V" horiz-adv-x="1398" d="M-2 1608q0 53 53 53q41 0 53 -37l459 -1395l449 1395q12 37 53 37q53 0 53 -53q0 -5 -4 -17l-500 -1554q-12 -37 -49 -37q-41 0 -53 37l-512 1554q-2 6 -2 17z" />
<glyph unicode="W" horiz-adv-x="2166" d="M4 1608q0 53 53 53q40 0 52 -39l395 -1368l385 1368q6 18 22 31q11 8 29 8q29 0 45 -23l8 -16l396 -1368l383 1368q12 40 46 40q10 0 21 -3q40 -12 40 -45q0 -10 -3 -21l-436 -1550q-12 -39 -51 -39q-40 0 -52 39l-395 1368l-385 -1368q-12 -39 -51 -39t-51 39l-449 1550 q-2 6 -2 15z" />
<glyph unicode="X" horiz-adv-x="1335" d="M10 23q-15 27 0 53l449 751l-449 748q-10 17 -10 32q0 25 29 42q18 10 33 10q26 0 42 -29l416 -698l416 698q17 29 42 29q15 0 34 -10q29 -16 29 -41q0 -15 -11 -33l-448 -748l448 -751q16 -28 2 -53q-15 -27 -47 -27q-34 0 -49 27l-416 698l-416 -698q-15 -27 -49 -27 q-30 0 -45 27z" />
<glyph unicode="Y" horiz-adv-x="1300" d="M8 1577q-9 16 -9 30q0 26 32 42q17 10 32 10q25 0 41 -31l426 -790l394 788q17 34 44 34q14 0 31 -9q32 -16 32 -44q0 -13 -7 -28l-440 -872v-654q0 -53 -52 -53q-57 0 -57 53v654z" />
<glyph unicode="Z" horiz-adv-x="1318" d="M-23 29q-15 28 3 55l929 1470h-848q-55 0 -55 56q0 53 55 53h947q31 0 47 -29q16 -28 -2 -55l-930 -1470h885q53 0 53 -56q0 -53 -53 -53h-983q-32 0 -48 29z" />
<glyph unicode="[" horiz-adv-x="468" d="M0 -96v1843q0 57 57 57h256q60 0 60 -57q0 -59 -60 -59h-196v-1725h196q60 0 60 -59q0 -60 -60 -60h-256q-57 0 -57 60z" />
<glyph unicode="\" horiz-adv-x="958" d="M0 1509q-19 49 29 64q47 18 65 -29l576 -1542q9 -25 -6 -46.5t-41 -21.5q-37 0 -48 33z" />
<glyph unicode="]" horiz-adv-x="733" d="M8 -94q0 59 60 59h196v1723h-196q-60 0 -60 59q0 57 60 57h256q57 0 57 -57v-1841q0 -60 -57 -60h-256q-60 0 -60 60z" />
<glyph unicode="^" horiz-adv-x="976" d="M219 1362q0 25 14 39l164 164q39 39 78 0l164 -164q14 -14 14 -39q0 -53 -53 -53q-23 0 -37 14l-127 127l-127 -127q-37 -37 -76 0q-14 14 -14 39z" />
<glyph unicode="_" horiz-adv-x="1173" d="M-68 -227q0 61 62 61h1202q61 0 61 -61q0 -62 -61 -62h-1202q-62 0 -62 62z" />
<glyph unicode="`" horiz-adv-x="624" d="M2.5 1575.5q-3.5 24.5 13.5 46.5q15 20 40.5 22.5t45.5 -12.5l168 -129q21 -15 24 -40.5t-13 -45.5q-17 -21 -41.5 -24t-44.5 12l-168 131q-21 15 -24.5 39.5z" />
<glyph unicode="a" horiz-adv-x="1232" d="M-16 338q0 133 84 211q89 86 251 86h457v100q0 132 -94 223q-93 93 -223 93h-47q-195 0 -283 -168q-16 -31 -43 -31q-14 0 -31 8q-31 17 -31 43q0 14 9 31q59 106 159 166.5t220 60.5h47q176 0 301 -125t125 -301v-84q2 -2 2 -4v-598q0 -51 -56 -51q-55 0 -55 51v113 q-141 -172 -342 -172h-47q-403 0 -403 348zM92 338q0 -242 295 -242h47q141 0 248 125q94 107 94 195v112h-459h-6q-113 0 -170 -57q-49 -46 -49 -133z" />
<glyph unicode="b" horiz-adv-x="1220" d="M0 55v1553q0 51 53 51t53 -51v-600q130 151 326 151h45q177 0 301 -127q125 -125 125 -299v-319q0 -174 -125 -299q-122 -125 -301 -125h-45q-196 0 -326 151v-86q0 -55 -53 -55t-53 55zM117 414q0 -129 92 -224q92 -92 223 -92h45q130 0 225 92q95 95 95 224v319 q0 131 -95 223q-96 93 -225 93h-45q-130 0 -223 -93q-92 -92 -92 -223v-319z" />
<glyph unicode="c" horiz-adv-x="1153" d="M0 414v319q0 174 127 301q125 125 301 125h47q131 0 237.5 -70.5t157.5 -191.5q4 -12 4 -20q0 -52 -53 -52q-37 0 -51 33q-38 88 -118 140.5t-177 52.5h-47q-132 0 -225 -93q-92 -92 -92 -225v-319q0 -134 92 -226t225 -92h47q105 0 190.5 62t116.5 161q12 37 52 37 q51 0 51 -53q0 -120 -148 -223q-133 -92 -262 -92h-47q-176 0 -301 125q-127 127 -127 301z" />
<glyph unicode="d" horiz-adv-x="1261" d="M0 410v321q0 177 123 303q125 125 305 125h45q202 0 328 -153v596q0 55 53 55q55 0 55 -55v-1547q0 -55 -55 -55q-53 0 -53 55v80q-125 -149 -328 -149h-45q-182 0 -305 123t-123 301zM109 410q0 -134 92 -226t227 -92h45q135 0 227 92q93 96 93 226v321q0 130 -93 223 q-92 95 -227 95h-45q-132 0 -227 -95q-92 -92 -92 -223v-321z" />
<glyph unicode="e" horiz-adv-x="1198" d="M0 414v319q0 174 127 301t303 127h49q174 0 301 -127q125 -125 125 -301v-127q0 -53 -53 -53h-741v-139q0 -136 92 -228t227 -92h49q103 0 185 58.5t114 156.5q12 37 53 37q56 0 56 -57q0 -11 -2 -17q-47 -129 -159 -208.5t-247 -79.5h-49q-178 0 -303 125 q-127 127 -127 305zM111 662h684v71q0 132 -93 225t-223 93h-49q-134 0 -227 -93q-92 -92 -92 -225v-71z" />
<glyph unicode="f" horiz-adv-x="747" d="M-43 1083q0 54 53 54h33v90q0 185 104 301q105 117 271 117q51 0 51 -54q0 -53 -51 -53q-121 0 -194.5 -85.5t-73.5 -225.5v-90h225q53 0 53 -54q0 -53 -53 -53h-225v-977q0 -53 -54 -53q-53 0 -53 53v977h-33q-53 0 -53 53z" />
<glyph unicode="g" horiz-adv-x="1241" d="M2 416v317q0 174 125 299t301 125h43q192 0 317 -143v82q0 55 52 55q53 0 53 -55v-1137q0 -171 -123 -297q-122 -125 -299 -125q-49 0 -49 53q0 56 49 56q128 0 223 92q94 91 94 221v178q-125 -143 -317 -143h-43q-176 0 -301 125t-125 297zM111 416q0 -129 92 -221 q93 -93 225 -93h43q130 0 223 93q94 94 94 221v317q0 132 -94 223q-93 93 -223 93h-43q-129 0 -225 -93q-92 -92 -92 -223v-317z" />
<glyph unicode="h" horiz-adv-x="1236" d="M0 55v1549q0 55 55 55q56 0 56 -55v-592q130 145 321 145h49q176 0 303 -127q129 -126 129 -307v-668q0 -55 -55 -55t-55 55v668q0 136 -94 227q-94 94 -228 94h-49q-133 0 -227 -94q-94 -91 -94 -227v-668q0 -55 -56 -55q-55 0 -55 55z" />
<glyph unicode="i" horiz-adv-x="456" d="M0 53v1041q0 55 53 55q56 0 56 -55v-1041q0 -53 -56 -53q-53 0 -53 53zM0 1516v88q0 53 53 53q56 0 56 -53v-88q0 -56 -56 -56q-53 0 -53 56z" />
<glyph unicode="j" horiz-adv-x="610" d="M-184 -367q0 52 51 52q123 0 213 90t90 213v1108q0 51 51 51q53 0 53 -51v-1108q0 -167 -120 -287q-119 -119 -287 -119q-51 0 -51 51zM166 1495v113q0 51 51 51t51 -51v-113q0 -51 -51 -51t-51 51z" />
<glyph unicode="k" horiz-adv-x="1093" d="M0 53v1551q0 23 15 39t38 16t39.5 -16t16.5 -39v-963h210l355 485q12 17 34.5 21t41.5 -8q17 -14 20 -36t-10 -42l-348 -475l348 -502q12 -19 8 -41t-23 -35q-16 -8 -30 -8q-29 0 -45 23l-353 509h-208v-479q0 -23 -16 -38t-40 -15q-23 0 -38 15t-15 38z" />
<glyph unicode="l" horiz-adv-x="466" d="M0 332v1276q0 53 53 53q56 0 56 -53v-1276q0 -133 63 -199q34 -34 72 -43q41 -10 41 -46q0 -9 -2 -19q-9 -41 -52 -41q-104 0 -174 131q-57 105 -57 217z" />
<glyph unicode="m" horiz-adv-x="2045" d="M0 55v1047q0 55 55 55q58 0 58 -55v-86q133 145 327 145h49q228 0 359 -186q131 186 360 186h49q183 0 312 -129q131 -128 131 -309v-668q0 -55 -58 -55q-55 0 -55 55v668q0 135 -98 229q-97 97 -232 97h-49q-96 0 -177.5 -53t-123.5 -140v-2q23 -71 23 -131v-668 q0 -55 -58 -55q-55 0 -55 55v668q0 135 -98 229q-97 97 -230 97h-49q-134 0 -231 -97q-96 -96 -96 -229v-668q0 -55 -58 -55q-55 0 -55 55z" />
<glyph unicode="n" horiz-adv-x="1251" d="M0 55v1039q0 53 53 53q58 0 58 -53v-80q125 143 317 143h47q178 0 303 -125q127 -127 127 -301v-676q0 -55 -57 -55q-53 0 -53 55v676q0 129 -95 221q-95 95 -225 95h-47q-130 0 -225 -95q-92 -92 -92 -221v-676q0 -55 -58 -55q-53 0 -53 55z" />
<glyph unicode="o" horiz-adv-x="1222" d="M0 414v319q0 174 127 301t303 127h45q176 0 303 -127t127 -301v-319q0 -176 -127 -303q-125 -125 -303 -125h-45q-178 0 -303 125q-127 127 -127 303zM111 414q0 -136 92 -228t227 -92h45q133 0 225 92q95 95 95 228v319q0 130 -95 225t-225 95h-45q-132 0 -227 -95 q-92 -92 -92 -225v-319z" />
<glyph unicode="p" horiz-adv-x="1251" d="M0 -481v1585q0 53 53 53q56 0 56 -53v-94q128 149 325 149h45q178 0 303 -125t125 -301v-319q0 -174 -125 -299t-303 -125h-45q-197 0 -325 149v-620q0 -56 -56 -56q-53 0 -53 56zM115 414q0 -132 94 -226q95 -92 225 -92h45q134 0 226 92q94 94 94 226v319 q0 131 -94 225q-92 95 -226 95h-45q-130 0 -225 -95q-94 -94 -94 -225v-319z" />
<glyph unicode="q" horiz-adv-x="1257" d="M-2 416v319q0 176 125 301t303 125h45q195 0 324 -147v90q0 53 55 53q53 0 53 -53v-1585q0 -56 -53 -56q-55 0 -55 56v618q-129 -147 -324 -147h-45q-178 0 -303 125t-125 301zM106 416q0 -133 93 -226q95 -92 227 -92h45q131 0 223 92q94 91 94 226v319q0 129 -94 223 q-95 95 -223 95h-45q-132 0 -227 -95q-93 -93 -93 -223v-319z" />
<glyph unicode="r" horiz-adv-x="819" d="M0 53v1041q0 57 53 57q58 0 58 -57v-88q130 145 319 145h49q53 0 53 -57q0 -54 -53 -54h-49q-133 0 -227 -94q-92 -95 -92 -223v-670q0 -53 -58 -53q-53 0 -53 53z" />
<glyph unicode="s" horiz-adv-x="1110" d="M10 205q-9 16 -9 30q0 26 32 41q17 10 32 10q26 0 41 -32q37 -69 114.5 -112.5t164.5 -43.5h49q97 0 180 62q86 62 86 143q0 106 -84 166q-60 42 -233 92q-173 49 -240 96q-114 73 -114 207q0 130 94 211.5t242 81.5h49q230 0 325 -160q12 -19 12 -34q0 -25 -30 -41 q-18 -11 -33 -11q-25 0 -41 29q-64 107 -233 107h-49q-100 0 -164 -51t-64 -132q0 -76 74 -123q50 -29 203 -73q185 -55 264 -109q133 -92 133 -256q0 -129 -123 -223q-116 -90 -254 -90h-49q-121 0 -221.5 58t-153.5 157z" />
<glyph unicode="t" horiz-adv-x="774" d="M-49 1096q0 23 15.5 38t37.5 15h86v182q0 23 15.5 39t37.5 16q23 0 39.5 -16t16.5 -39v-182h200q23 0 38.5 -15t15.5 -38q0 -22 -15.5 -38t-38.5 -16h-200v-616q0 -153 61.5 -234t175.5 -81q23 0 39.5 -17t16.5 -39q0 -23 -16 -38t-40 -15q-52 0 -100 13.5t-93.5 46 t-79 80t-53.5 120.5t-20 164v616h-86q-22 0 -37.5 16t-15.5 38z" />
<glyph unicode="u" horiz-adv-x="1255" d="M-2 410v688q0 53 55 53q53 0 53 -53v-688q0 -131 93 -224q92 -92 223 -92h49q131 0 223 92t92 224v688q0 53 56 53q53 0 53 -53v-1045q0 -55 -53 -55q-56 0 -56 55v76q-126 -141 -315 -141h-49q-173 0 -299 123q-125 125 -125 299z" />
<glyph unicode="v" horiz-adv-x="1185" d="M0 1096q0 53 53 53q39 0 51 -35l349 -907l338 907q12 35 49 35q55 0 55 -53q0 -7 -4 -19l-385 -1044q-11 -33 -53 -33q-39 0 -50 33l-399 1042q-4 12 -4 21z" />
<glyph unicode="w" horiz-adv-x="1837" d="M6 1071q-6 22 3.5 42.5t29.5 27.5q23 6 43.5 -4.5t26.5 -32.5l278 -883l332 887q15 37 49 37h10q37 0 51 -39l304 -885l307 885q6 20 26 30.5t43 4.5q20 -9 29 -29.5t2 -40.5l-360 -1036q-10 -35 -52 -35q-36 0 -49 37l-309 901l-334 -903q-14 -35 -51 -35h-2 q-36 0 -49 37z" />
<glyph unicode="x" horiz-adv-x="1171" d="M12 29q-18 27 0 55l342 491l-342 490q-11 16 -11 30q0 24 30 42q18 11 35 11q26 0 47 -28l311 -448l309 448q20 27 46 27q16 0 34 -10q30 -18 30 -41q0 -14 -12 -31l-342 -490l342 -491q21 -27 3 -55q-19 -29 -52 -29q-30 0 -49 25l-309 448l-311 -448q-19 -25 -50 -25 q-35 0 -51 29z" />
<glyph unicode="y" horiz-adv-x="1193" d="M-4 -422q8 50 51 50q5 0 10 -1q11 -2 23 -2q43 0 94 27q118 58 188 248l41 110l-6 13l-387 1050q-4 12 -4 19q0 57 53 57q40 0 54 -39l346 -942l334 942l2 8q12 35 53 35q53 0 53 -55q0 -7 -4 -19v-4q-323 -905 -430 -1212q-69 -202 -211 -293q-88 -55 -184 -55 q-23 0 -31 2q-46 8 -46 47q0 7 1 14z" />
<glyph unicode="z" horiz-adv-x="1208" d="M2 29q-14 33 6 59l731 950h-665q-54 0 -54 56q0 57 54 57h776q37 0 51 -33q15 -30 -6 -57l-731 -952h686q57 0 57 -54q0 -55 -57 -55h-797q-35 0 -51 29z" />
<glyph unicode="{" horiz-adv-x="618" d="M-53 834q0 50 49 59q133 41 133 186v453q0 128 82 202t207 60q55 -6 49 -63q-6 -59 -61 -50q-162 9 -162 -149v-453q0 -154 -117 -245q117 -88 117 -242v-467q0 -157 162 -148q55 3 61 -51q6 -55 -49 -61q-6 -2 -25 -2q-117 0 -186 63q-78 72 -78 199v467q0 146 -131 186 q-51 6 -51 56z" />
<glyph unicode="|" horiz-adv-x="632" d="M174 -356v1941q0 53 53 53q54 0 54 -53v-1941q0 -54 -54 -54q-53 0 -53 54z" />
<glyph unicode="}" horiz-adv-x="878" d="M53 -59q6 58 62 49q161 -9 161 149v453q0 154 117 246q-117 88 -117 241v467q0 157 -161 148q-56 -3 -62 51q-6 55 49 61q6 2 25 2q117 0 186 -63q78 -72 78 -199v-467q0 -146 131 -186q51 -6 51 -55q0 -51 -49 -60q-133 -41 -133 -186v-453q0 -128 -82 -202t-207 -60 q-55 6 -49 64z" />
<glyph unicode="~" horiz-adv-x="1198" d="M29 1069q3 31 26 45q99 74 219 74q116 0 201 -76q65 -59 148 -59q98 0 180 61q27 10 51 2q20 -9 20 -45q-6 -29 -28 -45q-103 -74 -223 -74q-104 0 -197 78q-64 64 -154 64q-99 0 -176 -68q-9 -9 -28 -6q-36 6 -39 49z" />
<glyph unicode="&#xa1;" horiz-adv-x="456" d="M0 -459v1153q0 54 53 54t53 -54v-1153q0 -53 -53 -53t-53 53zM0 1001v72q0 53 53 53t53 -53v-72q0 -53 -53 -53t-53 53z" />
<glyph unicode="&#xa2;" horiz-adv-x="1243" d="M53 668v284q0 174 127 301q114 114 271 123v191q0 53 53 53t53 -53v-191q117 -6 209 -69q104 -68 158 -191q4 -12 4 -20q0 -52 -54 -52q-37 0 -51 33q-41 89 -118 140q-65 45 -148 51v-918q89 9 160 62q91 65 119 161q12 37 51 37q51 0 51 -53q0 -121 -147 -223 q-121 -83 -234 -92v-148q0 -53 -53 -53t-53 53v148q-155 9 -271 125q-127 127 -127 301zM164 668q0 -134 92 -226q80 -83 195 -92v918q-114 -9 -195 -90q-92 -92 -92 -226v-284z" />
<glyph unicode="&#xa3;" horiz-adv-x="1343" d="M-8 780q0 64 65 64h58v266q0 228 145 393q144 164 350 164h54q142 0 264 -87t184 -230q4 -16 4 -25q0 -65 -63 -65q-46 0 -60 38q-44 110 -133.5 175t-195.5 65h-54q-151 0 -260 -127q-106 -124 -106 -301v-266h411q66 0 66 -64q0 -65 -66 -65h-411v-144q0 -246 -82 -444 h815q63 0 63 -64q0 -65 -63 -65h-920q-43 0 -57 33q-17 35 2 67q113 187 113 473v144h-58q-65 0 -65 65z" />
<glyph unicode="&#xa5;" horiz-adv-x="1310" d="M8 1577q-25 47 23 72q48 28 73 -21l426 -790l394 788q25 51 75 25q47 -24 25 -72l-406 -801h275q53 0 53 -55q0 -53 -53 -53h-309v-158h309q53 0 53 -55q0 -54 -53 -54h-309v-350q0 -53 -52 -53q-57 0 -57 53v350h-317q-54 0 -54 54q0 55 54 55h317v158h-317 q-54 0 -54 53q0 55 54 55h278z" />
<glyph unicode="&#xa6;" horiz-adv-x="456" d="M0 -41v737q0 54 53 54t53 -54v-737q0 -53 -53 -53t-53 53zM0 1004v702q0 53 53 53t53 -53v-702q0 -54 -53 -54t-53 54z" />
<glyph unicode="&#xa7;" horiz-adv-x="1202" d="M2 768q0 162 150 270q-95 83 -95 217q0 143 100.5 235.5t260.5 92.5h47q248 0 350 -182q10 -17 10 -31q0 -63 -67 -63q-36 0 -58 28q-61 119 -235 119h-47q-105 0 -168.5 -55.5t-63.5 -143.5q0 -85 74 -135q45 -30 207 -82q196 -60 281 -123q141 -102 141 -286 q0 -164 -154 -273q101 -82 101 -217q0 -143 -101 -235t-262 -92h-47q-248 0 -350 182q-8 13 -8 33q0 63 65 63q38 0 55 -33q64 -116 238 -116h47q105 0 168.5 55t63.5 143t-72 135q-46 30 -209 82q-194 60 -283 123q-139 103 -139 289zM131 768q0 -122 88 -186 q62 -45 240 -101q77 -23 153 -53l97 84q49 43 49 117q0 115 -84 184q-62 47 -244 100q-60 18 -151 54q-16 -14 -99 -78q-49 -46 -49 -121z" />
<glyph unicode="&#xa8;" horiz-adv-x="1099" d="M96 1468q0 42 33 73.5t76 31.5t73.5 -31t30.5 -74q0 -44 -30.5 -75t-73.5 -31t-76 31t-33 75zM565 1468q0 43 31 74t74 31t74.5 -31t31.5 -74q0 -44 -31.5 -75t-74.5 -31t-74 31t-31 75z" />
<glyph unicode="&#xa9;" horiz-adv-x="1671" d="M0 614v424q0 229 160 389q162 162 391 162h252q227 0 389 -162q162 -158 162 -389v-424q0 -227 -162 -389q-164 -159 -389 -159h-252q-227 0 -391 159q-160 160 -160 389zM111 614q0 -182 129 -311t311 -129h252q182 0 311 129t129 311v424q0 183 -129 312t-311 129h-252 q-182 0 -311 -129t-129 -312v-424zM326 719v227q0 134 94 225q95 95 227 95h33q98 0 178 -53.5t119 -141.5q4 -12 4 -22q0 -36 -33 -50q-54 -22 -74 29q-56 127 -194 127h-33q-87 0 -148 -61t-61 -148v-227q0 -86 61.5 -147.5t147.5 -61.5h33q72 0 128 40.5t75 106.5 q12 39 53 39q53 0 53 -55q0 -96 -110 -172q-101 -70 -199 -70h-33q-131 0 -227 93q-94 94 -94 227z" />
<glyph unicode="&#xaa;" horiz-adv-x="1232" d="M-16 338q0 133 84 211q89 86 251 86h457v100q0 132 -94 223q-93 93 -223 93h-47q-195 0 -283 -168q-24 -47 -74 -23q-47 26 -22 74q59 106 159 166.5t220 60.5h47q176 0 301 -125t125 -301v-84q2 -2 2 -4v-598q0 -51 -56 -51q-55 0 -55 51v113q-141 -172 -342 -172h-47 q-403 0 -403 348zM92 338q0 -242 295 -242h47q141 0 248 125q94 107 94 195v112h-459h-6q-113 0 -170 -57q-49 -46 -49 -133z" />
<glyph unicode="&#xab;" horiz-adv-x="940" d="M12 596q-43 43 0 86l185 182q17 17 43 17q59 0 59 -60q0 -26 -18 -41l-140 -141l140 -141q40 -44 0 -84q-17 -17 -41 -17q-26 0 -43 17zM328 596q-43 43 0 86l184 182q17 17 43 17q59 0 59 -60q0 -26 -18 -41l-139 -141l139 -141q40 -44 0 -84q-17 -17 -41 -17 q-26 0 -43 17z" />
<glyph unicode="&#xad;" horiz-adv-x="1046" d="M-2 782q0 62 61 62h580q61 0 61 -62q0 -61 -61 -61h-580q-61 0 -61 61z" />
<glyph unicode="&#xae;" horiz-adv-x="1671" d="M0 614v424q0 229 160 389q162 162 391 162h252q227 0 389 -162q162 -158 162 -389v-424q0 -227 -162 -389q-164 -159 -389 -159h-252q-227 0 -391 159q-160 160 -160 389zM111 614q0 -182 129 -311t311 -129h252q182 0 311 129t129 311v424q0 183 -129 312t-311 129h-252 q-182 0 -311 -129t-129 -312v-424zM406 455v749q0 25 17 42.5t42 17.5h248q113 0 190 -74q70 -70 70 -176v-25q0 -104 -70 -174q-22 -22 -49 -39l135 -295q10 -23 1 -47t-32 -35q-12 -6 -24 -6q-41 0 -57 37l-144 311h-20h-189v-286q0 -25 -17 -42.5t-42 -17.5t-42 17.5 t-17 42.5zM524 860h189q64 0 102.5 35t38.5 94v25q0 60 -38 95.5t-103 35.5h-189v-285z" />
<glyph unicode="&#xb0;" horiz-adv-x="786" d="M10 1442q0 91 66 157q68 68 160 68q96 0 161 -68q66 -66 66 -157q0 -97 -65 -162.5t-162 -65.5q-91 0 -160 66q-66 66 -66 162zM104 1442q0 -54 40.5 -94.5t91.5 -40.5q55 0 95 40.5t40 94.5q0 52 -40 91.5t-95 39.5q-51 0 -91.5 -40t-40.5 -91z" />
<glyph unicode="&#xb1;" horiz-adv-x="1179" d="M6 162q0 55 53 55h803q53 0 53 -55q0 -53 -53 -53h-803q-53 0 -53 53zM8 754q0 61 62 61h329v315q0 62 62 62q61 0 61 -62v-315h330q61 0 61 -61q0 -62 -61 -62h-330v-317q0 -60 -61 -60q-62 0 -62 60v317h-329q-62 0 -62 62z" />
<glyph unicode="&#xb4;" horiz-adv-x="587" d="M-19.5 1461.5q1.5 24.5 21.5 41.5l6 4l154 140q18 16 42.5 14.5t41.5 -21.5q18 -21 16.5 -44t-20.5 -42l-6 -6l-140 -125l-12 -10q-22 -18 -45.5 -17t-40.5 21q-19 20 -17.5 44.5z" />
<glyph unicode="&#xb5;" horiz-adv-x="1163" d="M2 -449v1319q0 50 49 50q53 0 53 -50v-491q0 -122 86 -211q86 -86 209 -86h35q123 0 209 86q86 89 86 211v491q0 50 51 50t51 -50v-491q0 -165 -116 -281q-117 -114 -281 -114h-35q-176 0 -295 131v-564q0 -51 -53 -51q-49 0 -49 51z" />
<glyph unicode="&#xb6;" horiz-adv-x="1961" d="M84 242q43 24 73 64t41 78t15 75.5t-6 56.5q-2 4 -12 31t-12.5 33t-11.5 30t-11.5 33t-9.5 30.5t-9.5 33.5t-7 31.5t-6 34.5t-3 33t-1.5 36q0 139 53 264.5t146.5 218.5t229.5 148t294 55q120 0 229 -31.5t201 -97.5t155.5 -159.5t91.5 -226t11 -288.5q-6 -58 9 -102 t34.5 -62.5t43 -33t24.5 -15.5q6 -15 3.5 -19t-14.5 -6q-5 -2 -25.5 11t-40.5 25.5t-40 9t-27 -32.5q-11 -84 -45.5 -178t-63.5 -146l-28 -53h-356q2 4 4.5 10.5t6.5 25.5t4 36t-8 38t-25 36t-51.5 25.5t-82.5 10.5t-82.5 -10t-52.5 -26t-28 -35.5t-11 -39t0.5 -35.5 t4.5 -26l3 -10h-360q23 100 -2 131q-27 5 -63 -20.5t-59 -53.5l-22 -28q-19 4 -56 33.5t-44 56.5zM352 596q0 -13 11 -22t26 -9q12 0 21.5 9t9.5 22q0 14 -9 22.5t-22 8.5q-16 0 -26.5 -8.5t-10.5 -22.5zM455 1092q18 -18 30 0q4 4 12 10t33 22t50.5 27.5t63 20t73.5 6.5 q57 -3 105 -30t98 -83q7 -6 22.5 -26t34.5 -62.5t25.5 -89t-15.5 -108t-78 -117.5l-2 -3q-2 -3 -8.5 -11t-27 -24.5t-48.5 -33t-77.5 -37t-108.5 -37.5q-9 -1 -13.5 -8.5t-2.5 -15.5q1 -9 7.5 -15t12.5 -6q4 0 6 2q60 15 111.5 35.5t82.5 38.5t55.5 37.5t33.5 29.5t14 17 q59 62 80.5 133t12.5 127t-29 104.5t-38 73.5t-22 27q-90 121 -229 127q-65 4 -131.5 -22.5t-93.5 -46.5t-39 -32q-12 -23 0 -30z" />
<glyph unicode="&#xb7;" horiz-adv-x="468" d="M0 600v31q0 61 61 61q62 0 62 -61v-31q0 -61 -62 -61q-61 0 -61 61z" />
<glyph unicode="&#xb8;" horiz-adv-x="491" d="M227.5 -259q4.5 23 26.5 38l178 121q18 13 43.5 7.5t38.5 -26.5q15 -25 10.5 -48.5t-26.5 -37.5l-168 -110l-8 -7q-20 -15 -45 -10t-39 27q-15 23 -10.5 46z" />
<glyph unicode="&#xba;" horiz-adv-x="1222" d="M0 414v319q0 174 127 301t303 127h45q176 0 303 -127t127 -301v-319q0 -176 -127 -303q-125 -125 -303 -125h-45q-178 0 -303 125q-127 127 -127 303zM111 414q0 -136 92 -228t227 -92h45q133 0 225 92q95 95 95 228v319q0 130 -95 225t-225 95h-45q-132 0 -227 -95 q-92 -92 -92 -225v-319z" />
<glyph unicode="&#xbb;" horiz-adv-x="933" d="M-4 457q0 26 18 41l140 141l-140 141q-40 44 0 84q17 17 41 17q26 0 43 -17l185 -182q43 -43 0 -86l-185 -182q-17 -17 -43 -17q-59 0 -59 60zM311 457q0 25 19 41l139 141l-139 141q-41 44 0 84q17 17 41 17q26 0 43 -17l184 -182q43 -43 0 -86l-184 -182 q-17 -17 -43 -17q-60 0 -60 60z" />
<glyph unicode="&#xbf;" horiz-adv-x="964" d="M-4 -104q0 223 113 354q71 83 229 168q119 64 158 106q61 70 61 176q0 58 61 58q60 0 60 -58q0 -150 -94 -251q-50 -56 -187 -132q-135 -77 -194 -143q-92 -109 -92 -278q0 -119 92 -211q105 -97 258 -97h65q211 0 326 133q15 21 45 21q57 0 57 -57q0 -23 -14 -37 q-144 -176 -414 -176h-65q-200 0 -332 120q-133 121 -133 304zM549 999v80q0 66 69 66q68 0 68 -66v-80q0 -65 -68 -65q-69 0 -69 65z" />
<glyph unicode="&#xc0;" horiz-adv-x="1552" d="M8 51q0 9 4 21l570 1552q12 38 51 35q37 0 49 -35l590 -1550q4 -12 4 -23q0 -53 -53 -53q-40 0 -52 35l-151 403h-758l-147 -403q-12 -35 -54 -35q-53 0 -53 53zM303 545h674l-344 907zM499.5 1907.5q-4.5 24.5 10.5 46.5q14 22 38.5 26.5t45.5 -8.5q4 -4 6 -4l162 -106 l10 -7q23 -13 28 -37.5t-9 -45.5q-15 -23 -38.5 -28.5t-45.5 9.5q-3 0 -7 4l-174 113q-22 13 -26.5 37.5z" />
<glyph unicode="&#xc1;" horiz-adv-x="1552" d="M8 51q0 9 4 21l570 1552q12 38 51 35q37 0 49 -35l590 -1550q4 -12 4 -23q0 -53 -53 -53q-40 0 -52 35l-151 403h-758l-147 -403q-12 -35 -54 -35q-53 0 -53 53zM303 545h674l-344 907zM490.5 1900q1.5 25 21.5 42l6 4l154 139q18 16 42.5 15t41.5 -21q18 -21 16.5 -44 t-20.5 -42l-7 -6l-139 -125l-12 -11q-22 -18 -45.5 -17t-40.5 21q-19 20 -17.5 45z" />
<glyph unicode="&#xc2;" horiz-adv-x="1552" d="M8 51q0 9 4 21l570 1552q12 38 51 35q37 0 49 -35l590 -1550q4 -12 4 -23q0 -53 -53 -53q-40 0 -52 35l-151 403h-758l-147 -403q-12 -35 -54 -35q-53 0 -53 53zM303 545h674l-344 907zM412 1776q0 25 14 39l166 165q39 39 78 0l166 -165q38 -38 0 -78q-15 -15 -39 -15 q-22 0 -37 15l-129 127l-129 -127q-37 -37 -76 0q-14 14 -14 39z" />
<glyph unicode="&#xc3;" horiz-adv-x="1552" d="M8 51q0 9 4 21l570 1552q12 38 51 35q37 0 49 -35l590 -1550q4 -12 4 -23q0 -53 -53 -53q-40 0 -52 35l-151 403h-758l-147 -403q-12 -35 -54 -35q-53 0 -53 53zM303 545h674l-344 907zM315 1849q3 28 21 43q80 74 174 74q90 0 156 -78q51 -57 118 -57q80 0 144 61 q17 8 39 2q16 -10 16 -41q-3 -29 -22 -45q-79 -73 -177 -73q-82 0 -153 77q-52 58 -121 58q-76 0 -141 -62q-10 -7 -23 -4q-28 3 -31 45z" />
<glyph unicode="&#xc4;" horiz-adv-x="1583" d="M0 57q0 5 4 17l580 1556q12 35 53 35q40 0 51 -33l617 -1556q2 -6 2 -19q0 -38 -35 -53q-54 -19 -72 31l-160 405h-782l-149 -403q-12 -35 -52 -35q-57 0 -57 55zM276 1921q0 45 33 78t80 33q44 0 78.5 -33.5t34.5 -77.5q0 -46 -34 -78.5t-79 -32.5q-47 0 -80 32t-33 79z M301 549h696l-358 909zM776 1921q0 45 33 78t80 33t79.5 -33t32.5 -78q0 -47 -32.5 -79t-79.5 -32t-80 32t-33 79z" />
<glyph unicode="&#xc5;" horiz-adv-x="1554" d="M10 51q0 7 4 19l561 1550q14 39 50 39q38 0 53 -37l596 -1552q4 -12 4 -19q0 -53 -55 -53q-37 0 -49 35l-156 401h-756l-147 -401q-12 -35 -49 -35q-56 0 -56 53zM301 543h676l-350 907zM395 1995q0 91 66 157q68 68 160 68q96 0 161 -68q66 -66 66 -157 q0 -97 -65 -162.5t-162 -65.5q-91 0 -160 66q-66 66 -66 162zM494 1995q0 -54 38 -92.5t89 -38.5q55 0 93 38.5t38 92.5q0 52 -38 89.5t-93 37.5q-51 0 -89 -38t-38 -89z" />
<glyph unicode="&#xc6;" horiz-adv-x="1773" d="M-12 51q0 9 4 21l713 1552q3 12 12 21q13 16 43 16l735 -4q53 0 53 -55q0 -54 -53 -54l-678 4v-659l498 -4q51 0 51 -55q0 -52 -51 -52l-498 4v-680l678 -4q53 0 53 -55q0 -53 -53 -53l-735 4q-53 0 -53 53v385h-422l-191 -403q-12 -35 -53 -35q-53 0 -53 53zM326 545 h381v803z" />
<glyph unicode="&#xc7;" horiz-adv-x="1382" d="M0 516v621q0 223 156 379q157 157 381 157h59q210 0 362 -143q154 -142 172 -348q3 -57 -51 -60q-51 -3 -57 52q-12 160 -137 276q-122 113 -289 113h-59q-179 0 -304 -125q-122 -125 -122 -301v-621q0 -176 122 -301q125 -125 304 -125h59q166 0 287 109 q122 113 137 276q6 55 61 49q55 -3 49 -61q-18 -203 -174 -344q-149 -137 -360 -137h-59q-226 0 -381 155q-156 156 -156 379zM303 -253q5 23 27 38q32 21 63 3t32.5 -49t-28.5 -54q-21 -13 -46 -9t-38 25q-15 23 -10 46zM330 -215l178 121l65 -105l-176 -116zM479 -152 q-2 32 29 58q18 13 43.5 7.5t38.5 -26.5q15 -25 10 -48t-27 -38q-31 -21 -61.5 -3t-32.5 50z" />
<glyph unicode="&#xc8;" d="M-2 51v1555q0 55 53 55h932q53 0 53 -55q0 -54 -53 -54h-874v-659h694q51 0 51 -55q0 -52 -51 -52h-694v-680h874q53 0 53 -55q0 -53 -53 -53h-932q-53 0 -53 53zM338 1991.5q-3 24.5 14 46.5q15 20 40.5 22.5t45.5 -12.5l168 -129q21 -15 23.5 -40.5t-13.5 -45.5 q-17 -21 -41.5 -24t-44.5 12l-168 131q-21 15 -24 39.5z" />
<glyph unicode="&#xc9;" d="M-2 51v1555q0 55 53 55h932q53 0 53 -55q0 -54 -53 -54h-874v-659h694q51 0 51 -55q0 -52 -51 -52h-694v-680h874q53 0 53 -55q0 -53 -53 -53h-932q-53 0 -53 53zM372.5 1807q4.5 23 26.5 38l179 121q18 13 43 8t38 -26q15 -23 10.5 -46.5t-26.5 -37.5l-168 -113l-8 -6 q-22 -15 -46.5 -10.5t-37.5 26.5q-15 23 -10.5 46z" />
<glyph unicode="&#xca;" d="M-2 51v1555q0 55 53 55h932q53 0 53 -55q0 -54 -53 -54h-874v-659h694q51 0 51 -55q0 -52 -51 -52h-694v-680h874q53 0 53 -55q0 -53 -53 -53h-932q-53 0 -53 53zM289 1819q0 25 14 39l166 165q39 39 78 0l166 -165q37 -38 0 -78q-15 -15 -39 -15q-22 0 -37 15l-129 127 l-129 -127q-37 -37 -76 0q-14 14 -14 39z" />
<glyph unicode="&#xcb;" d="M-2 51v1555q0 55 53 55h932q53 0 53 -55q0 -54 -53 -54h-874v-659h694q51 0 51 -55q0 -52 -51 -52h-694v-680h874q53 0 53 -55q0 -53 -53 -53h-932q-53 0 -53 53zM170 1878q0 42 33 73t76 31t73.5 -30.5t30.5 -73.5q0 -44 -30.5 -75t-73.5 -31t-76 31t-33 75zM639 1878 q0 43 30.5 73.5t73.5 30.5t75 -31t32 -73q0 -44 -32 -75t-75 -31t-73.5 31t-30.5 75z" />
<glyph unicode="&#xcc;" horiz-adv-x="460" d="M-87.5 2044.5q-3.5 24.5 13.5 46.5q15 20 40.5 22.5t45.5 -12.5l168 -129q21 -15 23.5 -40.5t-13.5 -45.5q-17 -21 -41.5 -24t-44.5 12l-167 131q-21 15 -24.5 39.5zM0 53q0 -53 53 -53q56 0 56 53v1553q0 53 -56 53q-53 0 -53 -53v-1553z" />
<glyph unicode="&#xcd;" horiz-adv-x="460" d="M-87.5 1846.5q1.5 24.5 21.5 41.5l7 4l153 140q18 16 42.5 14.5t41.5 -21.5q18 -21 16.5 -44t-20.5 -42l-6 -6l-139 -125l-13 -10q-22 -18 -45.5 -17t-40.5 21q-19 20 -17.5 44.5zM0 53q0 -53 53 -53q56 0 56 53v1553q0 53 -56 53q-53 0 -53 -53v-1553z" />
<glyph unicode="&#xce;" horiz-adv-x="501" d="M-123 1790q0 25 14 39l166 166q39 39 78 0l166 -166q37 -37 0 -78q-14 -14 -39 -14q-23 0 -37 14l-129 127l-129 -127q-37 -37 -76 0q-14 14 -14 39zM41 53v1553q0 53 53 53q56 0 56 -53v-1553q0 -53 -56 -53q-53 0 -53 53z" />
<glyph unicode="&#xcf;" horiz-adv-x="460" d="M-283 1917q0 42 33 73t76 31t73.5 -30.5t30.5 -73.5q0 -44 -30.5 -75.5t-73.5 -31.5t-76 31.5t-33 75.5zM0 53q0 -53 53 -53q56 0 56 53v1553q0 53 -56 53q-53 0 -53 -53v-1553zM186 1917q0 43 31 73.5t74 30.5t74.5 -30.5t31.5 -73.5q0 -44 -31.5 -75.5t-74.5 -31.5 t-74 31.5t-31 75.5z" />
<glyph unicode="&#xd0;" horiz-adv-x="1445" d="M-156 829q0 62 62 62h96v719q0 53 53 53h520q217 0 373 -156t156 -372v-609q0 -219 -156 -372q-154 -154 -373 -154h-520q-53 0 -53 53v715h-96q-62 0 -62 61zM111 109h464q175 0 297 122q123 123 123 295v609q0 177 -123 297q-122 122 -297 122h-464v-663h374 q62 0 62 -62q0 -61 -62 -61h-374v-659z" />
<glyph unicode="&#xd1;" horiz-adv-x="1490" d="M0 55v1551q0 40 37 49q38 9 59 -21l940 -1411v1383q0 51 51 51q52 0 52 -51v-1555q0 -51 -52 -51q-29 0 -45 23l-938 1411v-1379q0 -55 -53 -55q-51 0 -51 55zM240 1749q3 24 20 35q75 63 172 63q89 0 154 -65q52 -49 116 -49q79 0 142 51q17 8 39 2q16 -10 16 -35 q-3 -24 -22 -37q-75 -63 -175 -63q-80 0 -151 65q-52 49 -119 49q-79 0 -139 -51q-10 -7 -23 -4q-27 3 -30 39z" />
<glyph unicode="&#xd2;" horiz-adv-x="1447" d="M0 520v615q0 220 156 376q158 158 379 158h59q220 0 375 -158q155 -155 155 -376v-615q0 -224 -155 -379q-152 -155 -375 -155h-59q-224 0 -379 155q-156 156 -156 379zM111 520q0 -179 122 -301q123 -123 302 -123h59q177 0 297 123q123 126 123 301v615q0 173 -123 299 q-122 125 -297 125h-59q-177 0 -302 -125q-122 -122 -122 -299v-615zM414 2003.5q-3 24.5 14 46.5q15 20 40.5 22.5t45.5 -12.5l168 -129q21 -15 23.5 -40.5t-13.5 -45.5q-17 -21 -41.5 -24t-44.5 12l-168 131q-21 15 -24 39.5z" />
<glyph unicode="&#xd3;" horiz-adv-x="1447" d="M0 520v615q0 220 156 376q158 158 379 158h59q220 0 375 -158q155 -155 155 -376v-615q0 -224 -155 -379q-152 -155 -375 -155h-59q-224 0 -379 155q-156 156 -156 379zM111 520q0 -179 122 -301q123 -123 302 -123h59q177 0 297 123q123 126 123 301v615q0 173 -123 299 q-122 125 -297 125h-59q-177 0 -302 -125q-122 -122 -122 -299v-615zM418.5 1910.5q1.5 24.5 21.5 41.5l6 4l154 139q18 16 42.5 15t41.5 -21q18 -21 16.5 -44t-20.5 -42l-6 -6l-139 -125l-13 -10q-22 -18 -45.5 -17t-40.5 21q-19 20 -17.5 44.5z" />
<glyph unicode="&#xd4;" horiz-adv-x="1222" d="M0 414v319q0 174 127 301t303 127h45q176 0 303 -127t127 -301v-319q0 -176 -127 -303q-125 -125 -303 -125h-45q-178 0 -303 125q-127 127 -127 303zM111 414q0 -136 92 -228t227 -92h45q133 0 225 92q95 95 95 228v319q0 130 -95 225t-225 95h-45q-132 0 -227 -95 q-92 -92 -92 -225v-319zM229 1362q0 24 15 39l166 166q38 39 77 0l166 -166q37 -37 0 -78q-14 -14 -39 -14q-22 0 -36 14l-129 127l-130 -127q-36 -36 -75 0q-15 15 -15 39z" />
<glyph unicode="&#xd5;" horiz-adv-x="1464" d="M0 520v615q0 220 156 376q158 158 379 158h59q220 0 375 -158q155 -155 155 -376v-615q0 -224 -155 -379q-152 -155 -375 -155h-59q-224 0 -379 155q-156 156 -156 379zM111 520q0 -179 122 -301q123 -123 302 -123h59q177 0 297 123q123 126 123 301v615q0 173 -123 299 q-122 125 -297 125h-59q-177 0 -302 -125q-122 -122 -122 -299v-615zM233 1896q3 28 21 43q80 74 174 74q90 0 156 -78q51 -57 118 -57q80 0 144 61q18 9 39 3q16 -10 16 -41q-3 -30 -22 -46q-79 -73 -177 -73q-81 0 -153 78q-51 57 -121 57q-76 0 -141 -62q-10 -7 -23 -4 q-28 3 -31 45z" />
<glyph unicode="&#xd6;" horiz-adv-x="1464" d="M0 518v617q0 220 156 376t374 156h60q221 0 377 -156q157 -157 157 -376v-617q0 -218 -157 -375q-155 -155 -377 -155h-60q-219 0 -374 155q-156 156 -156 375zM111 518q0 -175 122 -297q123 -123 297 -123h60q176 0 299 123q125 125 125 297v617q0 175 -125 297 t-299 122h-60q-172 0 -297 -122q-122 -119 -122 -297v-617zM205 1921q0 47 32.5 80t79.5 33q45 0 78 -33t33 -80q0 -44 -33.5 -77.5t-77.5 -33.5q-47 0 -79.5 33t-32.5 78zM696 1921q0 47 32 80t77 33q49 0 81 -32.5t32 -80.5q0 -45 -32.5 -78t-80.5 -33q-44 0 -76.5 33.5 t-32.5 77.5z" />
<glyph unicode="&#xd7;" horiz-adv-x="1060" d="M63 442q-38 38 0 76l240 240l-237 235q-39 39 0 78q40 39 79 0l236 -235l237 233q39 39 78 0q39 -37 0 -76l-237 -237l235 -238q40 -40 0 -80q-38 -38 -78 2l-235 238l-240 -238q-38 -38 -78 2z" />
<glyph unicode="&#xd8;" horiz-adv-x="1445" d="M0 520v615q0 220 156 376q158 158 379 158h59q199 0 344 -127l72 119q26 44 71 18q46 -27 19 -73l-86 -144q110 -140 110 -327v-615q0 -224 -155 -379q-152 -155 -375 -155h-59q-196 0 -340 120l-66 -106q-26 -44 -72 -20q-47 27 -20 73l80 131q-117 144 -117 336z M111 520q0 -132 67 -233l701 1159q-119 113 -285 113h-59q-177 0 -302 -125q-122 -122 -122 -299v-615zM252 203q119 -107 283 -107h59q177 0 297 123q123 126 123 301v615q0 124 -64 225z" />
<glyph unicode="&#xd9;" horiz-adv-x="1458" d="M0 518v1086q0 55 55 55q58 0 58 -55v-1086q0 -178 123 -301t299 -123h57q176 0 299 123q125 125 125 301v1086q0 55 57 55q53 0 53 -55v-1086q0 -222 -157 -379q-155 -155 -377 -155h-57q-222 0 -377 155q-158 158 -158 379zM422 2003.5q-3 24.5 14 46.5q15 20 40.5 22.5 t45.5 -12.5l168 -129q21 -15 23.5 -40.5t-13.5 -45.5q-17 -21 -41.5 -24t-44.5 12l-168 131q-21 15 -24 39.5z" />
<glyph unicode="&#xda;" horiz-adv-x="1458" d="M0 518v1086q0 55 55 55q58 0 58 -55v-1086q0 -178 123 -301t299 -123h57q176 0 299 123q125 125 125 301v1086q0 55 57 55q53 0 53 -55v-1086q0 -222 -157 -379q-155 -155 -377 -155h-57q-222 0 -377 155q-158 158 -158 379zM435.5 1910.5q1.5 24.5 21.5 41.5l6 4 l153 139q18 16 42.5 15t41.5 -21q18 -21 16.5 -44t-20.5 -42l-6 -6l-139 -125l-12 -10q-22 -18 -45.5 -17t-40.5 21q-19 20 -17.5 44.5z" />
<glyph unicode="&#xdb;" horiz-adv-x="1472" d="M0 518v1086q0 55 55 55q58 0 58 -55v-1086q0 -178 123 -301t299 -123h57q176 0 299 123q125 125 125 301v1086q0 55 57 55q53 0 53 -55v-1086q0 -222 -157 -379q-155 -155 -377 -155h-57q-222 0 -377 155q-158 158 -158 379zM350 1798q0 24 15 39l163 164q39 39 78 0 l164 -164q14 -14 14 -39q0 -53 -53 -53q-23 0 -37 14l-127 127l-127 -127q-36 -36 -75 0q-15 15 -15 39z" />
<glyph unicode="&#xdc;" horiz-adv-x="1472" d="M0 518v1086q0 55 55 55q58 0 58 -55v-1086q0 -178 123 -301t299 -123h57q176 0 299 123q125 125 125 301v1086q0 55 57 55q53 0 53 -55v-1086q0 -222 -157 -379q-155 -155 -377 -155h-57q-222 0 -377 155q-158 158 -158 379zM201 1921q0 47 32.5 80t79.5 33q45 0 78 -33 t33 -80q0 -44 -33.5 -77.5t-77.5 -33.5q-47 0 -79.5 33t-32.5 78zM692 1921q0 47 32 80t77 33q49 0 80.5 -32.5t31.5 -80.5q0 -45 -32 -78t-80 -33q-44 0 -76.5 33.5t-32.5 77.5z" />
<glyph unicode="&#xdd;" horiz-adv-x="1300" d="M8 1577q-25 47 23 72q48 28 73 -21l426 -790l394 788q25 51 75 25q47 -24 25 -72l-440 -872v-654q0 -53 -52 -53q-57 0 -57 53v654zM394.5 1762.5q1.5 24.5 21.5 41.5l6 4l153 140q18 16 42.5 15t41.5 -21q18 -21 16.5 -44.5t-20.5 -42.5l-6 -6l-139 -125l-12 -10 q-22 -18 -45.5 -17t-40.5 21q-19 20 -17.5 44.5z" />
<glyph unicode="&#xde;" d="M20 61v1547q0 55 56 55q53 0 53 -55v-301q125 149 328 149h45q178 0 303 -125t125 -299v-321q0 -178 -125 -303q-122 -125 -303 -125h-45q-202 0 -328 153v-375q0 -55 -53 -55q-56 0 -56 55zM137 711q0 -131 92 -226q92 -92 228 -92h45q133 0 225 92q94 94 94 226v321 q0 129 -94 223q-95 95 -225 95h-45q-136 0 -228 -95q-92 -92 -92 -223v-321z" />
<glyph unicode="&#xdf;" horiz-adv-x="1138" d="M4 -143v1194q0 204 100 332t271 128h49q167 0 257.5 -94t90.5 -252v-26q0 -92 -45.5 -170t-120.5 -123q101 -50 158 -146t57 -221v-88q0 -170 -120 -289.5t-289 -119.5h-31q-20 0 -33.5 13.5t-13.5 33.5t13.5 34.5t33.5 14.5h31q129 0 221 91.5t92 221.5v88 q0 128 -81 221t-232 93h-13q-20 0 -33.5 13.5t-13.5 33.5t13.5 34.5t33.5 14.5h25q104 0 178 73.5t74 176.5v26q0 103 -65 176.5t-187 73.5h-49q-115 0 -194 -103.5t-79 -260.5v-1194q0 -20 -14.5 -35t-34.5 -15t-34.5 15t-14.5 35z" />
<glyph unicode="&#xe0;" horiz-adv-x="1208" d="M-16 334q0 135 82 211q91 88 256 88h456v98q0 132 -94 223q-95 95 -223 95h-49q-194 0 -283 -170q-24 -47 -74 -23q-47 26 -22 74q59 106 160 166.5t219 60.5h49q176 0 301 -125t125 -301v-82q2 -2 2 -4l-6 -592q0 -53 -56 -53q-58 0 -55 53l6 105q-140 -174 -344 -174 h-47q-403 0 -403 350zM92 334q0 -242 295 -242h47q139 0 250 123q94 107 94 195v114h-459h-6q-115 0 -172 -57q-49 -49 -49 -133zM282.5 1417.5q-4.5 24.5 10.5 46.5q14 22 38.5 27t45.5 -8q4 -4 6 -4l162 -107l10 -6q23 -13 27.5 -38t-9.5 -46q-15 -23 -38.5 -28t-45.5 10 q-2 0 -6 4l-174 112q-22 13 -26.5 37.5z" />
<glyph unicode="&#xe1;" horiz-adv-x="1226" d="M0 334q0 133 82 209q91 88 254 88h459v98q0 131 -95 223q-95 95 -225 95h-47q-194 0 -283 -170q-24 -47 -73 -23q-48 26 -23 74q57 106 157.5 166.5t221.5 60.5h47q176 0 301 -125q127 -127 127 -301v-676q0 -53 -55 -53q-53 0 -53 53v105q-143 -174 -344 -174h-48 q-403 0 -403 350zM106 334q0 -244 297 -244h48q140 0 247 125q97 111 97 195v112h-461h-6q-107 0 -170 -57q-52 -52 -52 -131zM293.5 1306.5q1.5 24.5 21.5 41.5l7 4l153 139q18 16 42.5 15t41.5 -21q18 -21 16.5 -44t-20.5 -42l-6 -6l-139 -125l-13 -11q-22 -17 -45.5 -16 t-40.5 21q-19 20 -17.5 44.5z" />
<glyph unicode="&#xe2;" horiz-adv-x="1210" d="M-16 334q0 133 82 209q91 88 253 88h459v98q0 132 -94 223q-95 95 -225 95h-47q-194 0 -283 -170q-24 -47 -74 -23q-47 26 -22 74q57 106 157.5 166.5t221.5 60.5h47q176 0 301 -125t125 -301v-82q2 -2 2 -4v-590q0 -53 -56 -53q-53 0 -53 53v105q-143 -174 -344 -174 h-47q-403 0 -403 350zM90 334q0 -244 297 -244h47q141 0 248 125q96 110 96 195v112h-461h-6q-107 0 -170 -57q-51 -51 -51 -131zM215 1350q0 25 14 39l166 165q39 39 78 0l166 -165q37 -38 0 -78q-15 -15 -39 -15q-22 0 -37 15l-129 127l-129 -127q-37 -37 -76 0 q-14 14 -14 39z" />
<glyph unicode="&#xe3;" horiz-adv-x="1214" d="M-16 334q0 132 82 211q92 86 256 86h456v100q0 130 -94 221q-95 95 -225 95h-47q-195 0 -283 -168q-24 -49 -74 -25q-48 26 -22 76q59 105 160 166t219 61h47q176 0 301 -125q127 -127 127 -301v-84q2 -2 2 -4v-590q0 -53 -58 -53q-53 0 -53 53v105q-143 -174 -344 -174 h-47q-403 0 -403 350zM92 334q0 -242 295 -242h47q139 0 250 123q94 107 94 195v114h-459h-6q-113 0 -172 -59q-49 -46 -49 -131zM109 1389q3 29 20 43q79 73 174 73q90 0 156 -78q51 -57 119 -57q78 0 143 62q17 8 39 2q16 -10 16 -41q-3 -29 -22 -45q-80 -74 -176 -74 q-82 0 -154 78q-51 57 -121 57q-77 0 -141 -61q-11 -7 -23 -5q-27 3 -30 46z" />
<glyph unicode="&#xe4;" horiz-adv-x="1206" d="M-16 334q0 133 82 209q91 88 253 88h459v98q0 132 -94 223q-95 95 -225 95h-47q-194 0 -283 -170q-24 -47 -74 -23q-47 26 -22 74q57 106 157.5 166.5t221.5 60.5h47q176 0 301 -125t125 -301v-82q2 -2 2 -4v-590q0 -53 -56 -53q-53 0 -53 53v105q-143 -174 -344 -174 h-47q-403 0 -403 350zM90 334q0 -244 297 -244h47q141 0 248 125q96 110 96 195v112h-461h-6q-107 0 -170 -57q-51 -51 -51 -131zM92 1475q0 42 33 73t76 31t73.5 -30.5t30.5 -73.5q0 -44 -30.5 -75.5t-73.5 -31.5t-76 31.5t-33 75.5zM561 1475q0 43 31 73.5t74 30.5 t74.5 -30.5t31.5 -73.5q0 -44 -31.5 -75.5t-74.5 -31.5t-74 31.5t-31 75.5z" />
<glyph unicode="&#xe5;" horiz-adv-x="1210" d="M-16 334q0 133 82 209q91 88 253 88h459v98q0 132 -94 223q-95 95 -225 95h-47q-194 0 -283 -170q-24 -47 -74 -23q-47 26 -22 74q57 106 157.5 166.5t221.5 60.5h47q176 0 301 -125t125 -301v-82q2 -2 2 -4v-590q0 -53 -56 -53q-53 0 -53 53v105q-143 -174 -344 -174 h-47q-403 0 -403 350zM90 334q0 -244 297 -244h47q141 0 248 125q96 110 96 195v112h-461h-6q-107 0 -170 -57q-51 -51 -51 -131zM207 1518q0 92 65 157q68 68 160 68q97 0 162 -68q65 -65 65 -157q0 -97 -65 -162.5t-162 -65.5q-91 0 -160 66q-65 65 -65 162zM305 1518 q0 -54 38 -93t89 -39q55 0 93 39t38 93q0 52 -38 89.5t-93 37.5q-51 0 -89 -38t-38 -89z" />
<glyph unicode="&#xe6;" horiz-adv-x="1978" d="M-16 338q0 133 84 211q89 86 251 86h457v100q0 132 -94 223q-93 93 -223 93h-47q-195 0 -283 -168q-24 -47 -74 -23q-47 26 -22 74q59 106 159 166.5t220 60.5h47q176 0 301 -125t125 -301v-84q2 -2 2 -4v-397q-26 -3 -111 -88q-141 -172 -342 -172h-47q-403 0 -403 348z M92 338q0 -242 295 -242h47q141 0 248 125q94 107 94 195v112h-459h-6q-113 0 -170 -57q-49 -46 -49 -133zM780 414v319q0 174 127 301t303 127h50q174 0 301 -127q125 -125 125 -301v-127q0 -53 -54 -53h-741v-139q0 -136 92 -228t227 -92h50q103 0 185 58.5t114 156.5 q12 37 53 37q55 0 55 -57q0 -11 -2 -17q-47 -129 -158.5 -208.5t-246.5 -79.5h-50q-178 0 -303 125q-127 127 -127 305zM891 662h684v71q0 133 -92 225q-93 93 -223 93h-50q-134 0 -227 -93q-92 -92 -92 -225v-71z" />
<glyph unicode="&#xe7;" horiz-adv-x="1153" d="M0 414v319q0 174 127 301q125 125 301 125h47q131 0 237.5 -70.5t157.5 -191.5q4 -12 4 -20q0 -52 -53 -52q-37 0 -51 33q-38 88 -118 140.5t-177 52.5h-47q-132 0 -225 -93q-92 -92 -92 -225v-319q0 -134 92 -226t225 -92h47q105 0 190.5 62t116.5 161q12 37 52 37 q51 0 51 -53q0 -120 -148 -223q-133 -92 -262 -92h-47q-176 0 -301 125q-127 127 -127 301zM227.5 -259q4.5 23 26.5 38l178 121q18 13 43.5 7.5t38.5 -26.5q15 -25 10.5 -48.5t-26.5 -37.5l-168 -110l-8 -7q-20 -15 -45 -10t-39 27q-15 23 -10.5 46z" />
<glyph unicode="&#xe8;" horiz-adv-x="1206" d="M0 414v319q0 174 127 301t303 127h49q174 0 301 -127q125 -125 125 -301v-127q0 -53 -53 -53h-741v-139q0 -136 92 -228t227 -92h49q103 0 185 58.5t114 156.5q12 37 53 37q56 0 56 -57q0 -11 -2 -17q-47 -129 -159 -208.5t-247 -79.5h-49q-178 0 -303 125 q-127 127 -127 305zM111 662h684v71q0 132 -93 225t-223 93h-49q-134 0 -227 -93q-92 -92 -92 -225v-71zM288.5 1421.5q-4.5 24.5 10.5 46.5q14 22 38.5 27t45.5 -8q4 -4 6 -4l162 -107l10 -6q23 -13 28 -38t-9 -46q-15 -23 -38.5 -28t-45.5 10q-3 0 -7 4l-174 112 q-22 13 -26.5 37.5z" />
<glyph unicode="&#xe9;" horiz-adv-x="1208" d="M0 414v319q0 174 127 301t303 127h49q174 0 301 -127q125 -125 125 -301v-127q0 -53 -53 -53h-741v-139q0 -136 92 -228t227 -92h49q103 0 185 58.5t114 156.5q12 37 53 37q56 0 56 -57q0 -11 -2 -17q-47 -129 -159 -208.5t-247 -79.5h-49q-178 0 -303 125 q-127 127 -127 305zM111 662h684v71q0 132 -93 225t-223 93h-49q-134 0 -227 -93q-92 -92 -92 -225v-71zM293.5 1306.5q1.5 24.5 21.5 41.5l7 4l153 139q18 16 42.5 15t41.5 -21q18 -21 16.5 -44t-20.5 -42l-6 -6l-139 -125l-13 -11q-22 -17 -45.5 -16t-40.5 21 q-19 20 -17.5 44.5z" />
<glyph unicode="&#xea;" horiz-adv-x="1206" d="M0 414v319q0 174 127 301t303 127h49q174 0 301 -127q125 -125 125 -301v-127q0 -53 -53 -53h-741v-139q0 -136 92 -228t227 -92h49q103 0 185 58.5t114 156.5q12 37 53 37q56 0 56 -57q0 -11 -2 -17q-47 -129 -159 -208.5t-247 -79.5h-49q-178 0 -303 125 q-127 127 -127 305zM111 662h684v71q0 132 -93 225t-223 93h-49q-134 0 -227 -93q-92 -92 -92 -225v-71zM229 1348q0 23 15 38l166 166q38 38 77 0l166 -166q37 -37 0 -77q-15 -15 -39 -15q-21 0 -36 15l-129 127l-130 -127q-36 -36 -75 0q-15 15 -15 39z" />
<glyph unicode="&#xeb;" horiz-adv-x="1206" d="M0 414v319q0 174 127 301t303 127h49q174 0 301 -127q125 -125 125 -301v-127q0 -53 -53 -53h-741v-139q0 -136 92 -228t227 -92h49q103 0 185 58.5t114 156.5q12 37 53 37q56 0 56 -57q0 -11 -2 -17q-47 -129 -159 -208.5t-247 -79.5h-49q-178 0 -303 125 q-127 127 -127 305zM96 1468q0 42 33 73.5t76 31.5t73.5 -31t30.5 -74q0 -44 -30.5 -75t-73.5 -31t-76 31t-33 75zM111 662h684v71q0 132 -93 225t-223 93h-49q-134 0 -227 -93q-92 -92 -92 -225v-71zM565 1468q0 43 31 74t74 31t74.5 -31t31.5 -74q0 -44 -31.5 -75 t-74.5 -31t-74 31t-31 75z" />
<glyph unicode="&#xec;" horiz-adv-x="483" d="M-122.5 1440.5q-3.5 24.5 13.5 46.5q15 20 40.5 22.5t45.5 -12.5l168 -129q21 -15 24 -40.5t-13 -45.5q-17 -21 -41.5 -24t-44.5 12l-168 131q-21 15 -24.5 39.5zM0 53v1041q0 55 53 55q56 0 56 -55v-1041q0 -53 -56 -53q-53 0 -53 53z" />
<glyph unicode="&#xed;" horiz-adv-x="479" d="M-46.5 1306.5q1.5 24.5 21.5 41.5q17 16 37 17t35 -10.5t24.5 -27.5t6 -35.5t-20.5 -34.5q-22 -17 -45.5 -16t-40.5 21q-19 20 -17.5 44.5zM-25 1348l160 143l80 -92l-158 -142zM0 53v1041q0 55 53 55q56 0 56 -55v-1041q0 -53 -56 -53q-53 0 -53 53zM114.5 1455 q3.5 20 20.5 36q17 17 42 15.5t42 -21.5q18 -21 16.5 -44.5t-20.5 -41.5q-17 -16 -37 -17t-34.5 10t-23.5 27t-5.5 36z" />
<glyph unicode="&#xee;" horiz-adv-x="462" d="M-174 1350q0 25 14 39l166 165q39 39 78 0l166 -165q38 -38 0 -78q-15 -15 -39 -15q-22 0 -37 15l-129 127l-129 -127q-37 -37 -76 0q-14 14 -14 39zM0 53v1041q0 55 53 55q56 0 56 -55v-1041q0 -53 -56 -53q-53 0 -53 53z" />
<glyph unicode="&#xef;" horiz-adv-x="671" d="M-281 1468q0 42 33 73.5t76 31.5t73.5 -31t30.5 -74q0 -44 -30.5 -75t-73.5 -31t-76 31t-33 75zM0 53v1041q0 55 53 55q56 0 56 -55v-1041q0 -53 -56 -53q-53 0 -53 53zM188 1468q0 43 31 74t74 31t74.5 -31t31.5 -74q0 -44 -31.5 -75t-74.5 -31t-74 31t-31 75z" />
<glyph unicode="&#xf0;" horiz-adv-x="1234" d="M0 416v317q0 172 125 297t301 125h43q210 0 317 -168v203q0 122 -79 223l-125 -106q-41 -35 -76 6q-36 43 6 76l119 100q-71 53 -162 53q-49 0 -49 55q0 54 49 54q136 0 246 -90l108 92q40 34 74 -6t-6 -74l-105 -90q105 -135 105 -293l-8 -844q-83 -354 -414 -354h-43 q-176 0 -301 125t-125 299zM109 416q0 -131 92 -223q96 -93 225 -93h43q130 0 223 93q94 91 94 223v317q0 125 -94 219q-95 95 -223 95h-43q-130 0 -225 -95q-92 -92 -92 -219v-317z" />
<glyph unicode="&#xf1;" horiz-adv-x="1226" d="M0 55v1039q0 53 53 53q58 0 58 -53v-80q125 143 317 143h47q178 0 303 -125q127 -127 127 -301v-676q0 -55 -57 -55q-53 0 -53 55v676q0 129 -95 221q-95 95 -225 95h-47q-130 0 -225 -95q-92 -92 -92 -221v-676q0 -55 -58 -55q-53 0 -53 55zM129 1419q3 23 21 35 q76 64 172 64q87 0 153 -66q52 -49 117 -49q78 0 141 51q17 8 39 2q16 -10 16 -35q-3 -24 -22 -37q-75 -63 -174 -63q-81 0 -152 65q-53 50 -118 50q-79 0 -140 -52q-10 -6 -22 -4q-28 3 -31 39z" />
<glyph unicode="&#xf2;" horiz-adv-x="1222" d="M0 414v319q0 174 127 301t303 127h45q176 0 303 -127t127 -301v-319q0 -176 -127 -303q-125 -125 -303 -125h-45q-178 0 -303 125q-127 127 -127 303zM111 414q0 -136 92 -228t227 -92h45q133 0 225 92q95 95 95 228v319q0 130 -95 225t-225 95h-45q-132 0 -227 -95 q-92 -92 -92 -225v-319zM292.5 1432.5q-4.5 24.5 10.5 46.5q14 22 38.5 26.5t45.5 -8.5q20 -12 26.5 -31t0 -35.5t-20 -30.5t-34 -15t-40.5 10q-22 13 -26.5 37.5zM319 1395l68 102l178 -117l-65 -102zM471.5 1335.5q4.5 36.5 33 50t60.5 -5.5q23 -13 28 -38t-9 -46 q-15 -23 -39 -27.5t-45 9.5q-33 21 -28.5 57.5z" />
<glyph unicode="&#xf3;" d="M0 414v319q0 174 127 301t303 127h45q176 0 303 -127t127 -301v-319q0 -176 -127 -303q-125 -125 -303 -125h-45q-178 0 -303 125q-127 127 -127 303zM111 414q0 -136 92 -228t227 -92h45q133 0 225 92q95 95 95 228v319q0 130 -95 225t-225 95h-45q-132 0 -227 -95 q-92 -92 -92 -225v-319zM314.5 1306.5q1.5 24.5 21.5 41.5l6 4l154 139q18 16 42.5 15t41.5 -21q18 -21 16 -44t-21 -42l-6 -6l-139 -125l-12 -11q-22 -17 -45.5 -16t-40.5 21q-19 20 -17.5 44.5z" />
<glyph unicode="&#xf4;" horiz-adv-x="1222" d="M0 414v319q0 174 127 301t303 127h45q176 0 303 -127t127 -301v-319q0 -176 -127 -303q-125 -125 -303 -125h-45q-178 0 -303 125q-127 127 -127 303zM111 414q0 -136 92 -228t227 -92h45q133 0 225 92q95 95 95 228v319q0 130 -95 225t-225 95h-45q-132 0 -227 -95 q-92 -92 -92 -225v-319zM215 1350q0 25 14 39l166 165q39 39 78 0l166 -165q37 -38 0 -78q-15 -15 -39 -15q-22 0 -37 15l-129 127l-129 -127q-37 -37 -76 0q-14 14 -14 39z" />
<glyph unicode="&#xf5;" d="M0 414v319q0 174 127 301t303 127h45q176 0 303 -127t127 -301v-319q0 -176 -127 -303q-125 -125 -303 -125h-45q-178 0 -303 125q-127 127 -127 303zM111 414q0 -136 92 -228t227 -92h45q133 0 225 92q95 95 95 228v319q0 130 -95 225t-225 95h-45q-132 0 -227 -95 q-92 -92 -92 -225v-319zM129 1393q3 22 21 34q76 64 172 64q87 0 153 -66q52 -49 117 -49q78 0 141 51q18 9 39 3q16 -10 16 -35q-3 -24 -22 -37q-76 -64 -174 -64q-80 0 -152 66q-52 49 -118 49q-80 0 -140 -51q-10 -6 -22 -4q-28 3 -31 39z" />
<glyph unicode="&#xf6;" horiz-adv-x="1224" d="M4 414v319q0 178 125 303t303 125h47q176 0 301 -125q127 -127 127 -303v-319q0 -174 -127 -301q-125 -125 -301 -125h-47q-178 0 -303 125t-125 301zM100 1491q0 44 34 76t79 32q44 0 76.5 -32t32.5 -76q0 -47 -32 -79t-77 -32t-79 32.5t-34 78.5zM113 414 q0 -134 92 -226t227 -92h47q134 0 226 92q94 94 94 226v319q0 131 -94 225q-95 95 -226 95h-47q-132 0 -227 -95q-92 -92 -92 -225v-319zM590 1491q0 44 32 76t76 32q45 0 78 -32t33 -76q0 -47 -33 -79t-78 -32t-76.5 32t-31.5 79z" />
<glyph unicode="&#xf7;" horiz-adv-x="1140" d="M2 698q0 62 61 62h768q62 0 62 -62q0 -61 -62 -61h-768q-61 0 -61 61zM393 307v51q0 62 62 62q61 0 61 -62v-51q0 -61 -61 -61q-62 0 -62 61zM393 1032v51q0 62 62 62q61 0 61 -62v-51q0 -61 -61 -61q-62 0 -62 61z" />
<glyph unicode="&#xf8;" horiz-adv-x="1265" d="M0 414v319q0 174 127 301t303 127h45q165 0 285 -108l74 98q38 50 86 14q49 -37 14 -88l-90 -123q61 -98 61 -221v-319q0 -176 -127 -303q-125 -125 -303 -125h-45q-139 0 -248 77l-47 -63q-36 -48 -86 -10q-47 36 -14 84l55 76q-90 116 -90 264zM111 414q0 -95 47 -172 l536 723q-88 88 -219 88h-45q-132 0 -227 -95q-92 -92 -92 -225v-319zM246 150q80 -56 184 -56h45q133 0 225 92q95 95 95 228v319q0 65 -25 123z" />
<glyph unicode="&#xf9;" horiz-adv-x="1226" d="M-2 410v688q0 53 55 53q53 0 53 -53v-688q0 -131 93 -224q92 -92 223 -92h49q131 0 223 92t92 224v688q0 53 56 53q53 0 53 -53v-1045q0 -55 -53 -55q-56 0 -56 55v76q-126 -141 -315 -141h-49q-173 0 -299 123q-125 125 -125 299zM292.5 1432.5q-4.5 24.5 10.5 46.5 q14 22 38.5 26.5t45.5 -8.5q20 -12 26.5 -31t0 -35.5t-20 -30.5t-34 -15t-40.5 10q-22 13 -26.5 37.5zM319 1395l68 102l178 -117l-65 -102zM471.5 1335.5q4.5 36.5 33 50t60.5 -5.5q23 -13 28 -38t-9 -46q-15 -23 -39 -27.5t-45 9.5q-33 21 -28.5 57.5z" />
<glyph unicode="&#xfa;" horiz-adv-x="1224" d="M-2 410v688q0 53 55 53q53 0 53 -53v-688q0 -131 93 -224q92 -92 223 -92h49q131 0 223 92t92 224v688q0 53 56 53q53 0 53 -53v-1045q0 -55 -53 -55q-56 0 -56 55v76q-126 -141 -315 -141h-49q-173 0 -299 123q-125 125 -125 299zM314.5 1306.5q1.5 24.5 21.5 41.5 q17 16 37 17t35 -10.5t24.5 -27.5t6 -35.5t-20.5 -34.5q-22 -17 -45.5 -16t-40.5 21q-19 20 -17.5 44.5zM336 1348l160 143l79 -92l-157 -142zM475 1455q4 20 21 36q17 17 42 15.5t42 -21.5q18 -21 16 -44.5t-21 -41.5q-17 -16 -36.5 -17t-34 10t-24 27t-5.5 36z" />
<glyph unicode="&#xfb;" horiz-adv-x="1222" d="M-2 410v688q0 53 55 53q53 0 53 -53v-688q0 -131 93 -224q92 -92 223 -92h49q131 0 223 92t92 224v688q0 53 56 53q53 0 53 -53v-1045q0 -55 -53 -55q-56 0 -56 55v76q-126 -141 -315 -141h-49q-173 0 -299 123q-125 125 -125 299zM229 1348q0 23 15 38l166 166 q38 38 77 0l166 -166q37 -37 0 -77q-15 -15 -39 -15q-21 0 -36 15l-129 127l-130 -127q-36 -36 -75 0q-15 15 -15 39z" />
<glyph unicode="&#xfc;" horiz-adv-x="1222" d="M-2 410v688q0 53 55 53q53 0 53 -53v-688q0 -131 93 -224q92 -92 223 -92h49q131 0 223 92t92 224v688q0 53 56 53q53 0 53 -53v-1045q0 -55 -53 -55q-56 0 -56 55v76q-126 -141 -315 -141h-49q-173 0 -299 123q-125 125 -125 299zM96 1468q0 42 33 73.5t76 31.5 t73.5 -31t30.5 -74q0 -44 -30.5 -75t-73.5 -31t-76 31t-33 75zM565 1468q0 43 31 74t74 31t74.5 -31t31.5 -74q0 -44 -31.5 -75t-74.5 -31t-74 31t-31 75z" />
<glyph unicode="&#xfd;" horiz-adv-x="1177" d="M-4 -422q9 55 61 49q53 -9 117 25q118 58 188 248l41 110l-6 13l-387 1050q-4 12 -4 19q0 57 53 57q40 0 54 -39l346 -942l334 942l2 8q12 35 53 35q53 0 53 -55q0 -7 -4 -19v-4q-323 -905 -430 -1212q-69 -202 -211 -293q-88 -55 -184 -55q-23 0 -31 2q-54 9 -45 61z M336.5 1383.5q1.5 24.5 21.5 41.5l7 5l153 139q18 16 42.5 15t41.5 -21q18 -21 16.5 -44t-20.5 -42l-6 -7l-139 -124l-13 -11q-22 -18 -45.5 -17t-40.5 21q-19 20 -17.5 44.5z" />
<glyph unicode="&#xfe;" d="M20 61v1547q0 55 56 55q53 0 53 -55v-334q125 149 328 149h45q178 0 303 -125t125 -299v-321q0 -178 -125 -303q-122 -125 -303 -125h-45q-202 0 -328 153v-342q0 -55 -53 -55q-56 0 -56 55zM137 678q0 -130 92 -225q93 -93 228 -93h45q132 0 225 93q94 94 94 225v321 q0 130 -94 224t-225 94h-45q-137 0 -228 -94q-92 -92 -92 -224v-321z" />
<glyph unicode="&#xff;" horiz-adv-x="1189" d="M-4 -422q9 55 61 49q53 -9 117 25q118 58 188 248l41 110l-6 13l-387 1050q-4 12 -4 19q0 57 53 57q40 0 54 -39l346 -942l334 942l2 8q12 35 53 35q53 0 53 -55q0 -7 -4 -19v-4q-323 -905 -430 -1212q-69 -202 -211 -293q-88 -55 -184 -55q-23 0 -31 2q-54 9 -45 61z M119 1466q0 42 32.5 73.5t75.5 31.5t74 -31t31 -74q0 -44 -31 -75t-74 -31t-75.5 31t-32.5 75zM588 1466q0 43 30.5 74t73.5 31t75 -31t32 -74q0 -44 -32 -75t-75 -31t-73.5 31t-30.5 75z" />
<glyph unicode="&#x152;" horiz-adv-x="1724" d="M0 528v605q0 218 154 372q156 156 374 156h134h4h788q53 0 53 -55q0 -54 -53 -54h-727v-659h547q49 0 49 -55q0 -50 -49 -50h-547v-679h727q53 0 53 -56q0 -53 -53 -53h-792h-5h-129q-220 0 -374 154t-154 374zM111 520q0 -179 122 -301q123 -123 302 -123h77v1463h-77 q-177 0 -302 -125q-122 -122 -122 -299v-615z" />
<glyph unicode="&#x153;" horiz-adv-x="1986" d="M0 414v319q0 174 127 301t303 127h45q176 0 303 -127q46 -46 68 -84q21 36 69 84q127 127 304 127h49q174 0 301 -127q125 -125 125 -301v-127q0 -53 -54 -53h-735v-139q0 -17 -4 -49q15 -104 90 -179q92 -92 228 -92h49q103 0 185 58.5t114 156.5q12 37 53 37 q55 0 55 -57q0 -11 -2 -17q-47 -129 -158.5 -208.5t-246.5 -79.5h-49q-179 0 -304 125q-45 45 -69 86q-26 -42 -68 -84q-125 -125 -303 -125h-45q-178 0 -303 125q-127 127 -127 303zM111 414q0 -136 92 -228t227 -92h45q133 0 225 92q76 76 91 179q-3 24 -3 49v319 q0 26 3 47q-15 102 -91 178q-92 95 -225 95h-45q-132 0 -227 -95q-92 -92 -92 -225v-319zM901 780q4 -28 4 -47v-71h678v71q0 133 -92 225q-93 93 -223 93h-49q-135 0 -228 -93q-75 -75 -90 -178z" />
<glyph unicode="&#x178;" horiz-adv-x="1300" d="M8 1577q-25 47 23 72q48 28 73 -21l426 -790l394 788q25 51 75 25q47 -24 25 -72l-440 -872v-654q0 -53 -52 -53q-57 0 -57 53v654zM188 1976q0 42 33 73.5t76 31.5t73.5 -31t30.5 -74q0 -44 -30.5 -75t-73.5 -31t-76 31t-33 75zM657 1976q0 43 31 74t74 31t74.5 -31 t31.5 -74q0 -44 -31.5 -75t-74.5 -31t-74 31t-31 75z" />
<glyph unicode="&#x2c6;" horiz-adv-x="854" d="M96 1362q0 24 15 39l163 164q39 39 78 0l164 -164q14 -14 14 -39q0 -53 -53 -53q-23 0 -37 14l-127 127l-127 -127q-36 -36 -75 0q-15 15 -15 39z" />
<glyph unicode="&#x2dc;" horiz-adv-x="1198" d="M29 1069q3 31 26 45q99 74 219 74q116 0 201 -76q65 -59 148 -59q98 0 180 61q27 10 51 2q20 -9 20 -45q-6 -29 -28 -45q-103 -74 -223 -74q-104 0 -197 78q-64 64 -154 64q-99 0 -176 -68q-9 -9 -28 -6q-36 6 -39 49z" />
<glyph unicode="&#x2000;" horiz-adv-x="1110" />
<glyph unicode="&#x2001;" horiz-adv-x="2220" />
<glyph unicode="&#x2002;" horiz-adv-x="1110" />
<glyph unicode="&#x2003;" horiz-adv-x="2220" />
<glyph unicode="&#x2004;" horiz-adv-x="740" />
<glyph unicode="&#x2005;" horiz-adv-x="555" />
<glyph unicode="&#x2006;" horiz-adv-x="370" />
<glyph unicode="&#x2007;" horiz-adv-x="370" />
<glyph unicode="&#x2008;" horiz-adv-x="277" />
<glyph unicode="&#x2009;" horiz-adv-x="444" />
<glyph unicode="&#x200a;" horiz-adv-x="123" />
<glyph unicode="&#x2010;" horiz-adv-x="894" d="M2 698q0 62 61 62h435q61 0 61 -62q0 -61 -61 -61h-435q-61 0 -61 61z" />
<glyph unicode="&#x2011;" horiz-adv-x="894" d="M2 698q0 62 61 62h435q61 0 61 -62q0 -61 -61 -61h-435q-61 0 -61 61z" />
<glyph unicode="&#x2012;" horiz-adv-x="894" d="M2 698q0 62 61 62h435q61 0 61 -62q0 -61 -61 -61h-435q-61 0 -61 61z" />
<glyph unicode="&#x2013;" horiz-adv-x="1099" d="M2 698q0 62 61 62h639q62 0 62 -62q0 -61 -62 -61h-639q-61 0 -61 61z" />
<glyph unicode="&#x2014;" horiz-adv-x="1433" d="M2 698q0 62 61 62h973q62 0 62 -62q0 -61 -62 -61h-973q-61 0 -61 61z" />
<glyph unicode="&#x2018;" horiz-adv-x="464" d="M10 1395v233q0 62 62 62q61 0 61 -62v-233q0 -62 -61 -62q-62 0 -62 62z" />
<glyph unicode="&#x2019;" horiz-adv-x="464" d="M10 1395v233q0 62 62 62q61 0 61 -62v-233q0 -62 -61 -62q-62 0 -62 62z" />
<glyph unicode="&#x201a;" horiz-adv-x="473" d="M10 31v233q0 62 62 62q61 0 61 -62v-233q0 -62 -61 -62q-62 0 -62 62z" />
<glyph unicode="&#x201c;" horiz-adv-x="714" d="M0 1395v233q0 62 61 62q62 0 62 -62v-233q0 -62 -62 -62q-61 0 -61 62zM260 1395v233q0 62 62 62q61 0 61 -62v-233q0 -62 -61 -62q-62 0 -62 62z" />
<glyph unicode="&#x201d;" horiz-adv-x="714" d="M0 1395v233q0 62 61 62q62 0 62 -62v-233q0 -62 -62 -62q-61 0 -61 62zM260 1395v233q0 62 62 62q61 0 61 -62v-233q0 -62 -61 -62q-62 0 -62 62z" />
<glyph unicode="&#x201e;" horiz-adv-x="733" d="M10 33v233q0 62 62 62q61 0 61 -62v-233q0 -62 -61 -62q-62 0 -62 62zM270 33v233q0 62 62 62q61 0 61 -62v-233q0 -62 -61 -62q-62 0 -62 62z" />
<glyph unicode="&#x2022;" horiz-adv-x="696" d="M-10 813q0 77 56.5 132.5t131.5 55.5t133 -55q60 -57 60 -133q0 -75 -60 -135q-57 -57 -133 -57q-74 0 -131 57t-57 135z" />
<glyph unicode="&#x2026;" horiz-adv-x="1163" d="M0 49v31q0 61 61 61q62 0 62 -61v-31q0 -61 -62 -61q-61 0 -61 61zM354 49v31q0 61 62 61q61 0 61 -61v-31q0 -61 -61 -61q-62 0 -62 61zM709 49v31q0 61 61 61t61 -61v-31q0 -61 -61 -61t-61 61z" />
<glyph unicode="&#x202f;" horiz-adv-x="444" />
<glyph unicode="&#x2039;" horiz-adv-x="600" d="M16 600q-39 39 0 78l164 164q14 14 39 14q53 0 53 -53q0 -21 -16 -37l-125 -127l125 -127q37 -39 0 -76q-14 -14 -37 -14q-25 0 -39 14z" />
<glyph unicode="&#x203a;" horiz-adv-x="593" d="M2 475q0 21 16 37l127 127l-127 127q-38 38 0 76q14 14 39 14q23 0 37 -14l164 -164q39 -39 0 -78l-164 -164q-37 -37 -76 0q-16 16 -16 39z" />
<glyph unicode="&#x205f;" horiz-adv-x="555" />
<glyph unicode="&#x20ac;" horiz-adv-x="1382" d="M33 664q0 51 51 51h94v141h-94q-51 0 -51 51t51 51h94v152q0 208 129 352q134 146 314 146h49q127 0 233.5 -74.5t163.5 -202.5q18 -48 -29 -69t-65 26q-43 100 -124.5 158.5t-178.5 58.5h-49q-141 0 -242 -116q-98 -113 -98 -279v-152h499q51 0 51 -51t-51 -51h-499 v-141h499q51 0 51 -51q0 -52 -51 -52h-499v-77q0 -171 98 -283q100 -115 242 -115h49q115 0 204.5 80.5t120.5 208.5q12 49 64 37q49 -9 37 -62q-41 -164 -158 -264q-120 -102 -268 -102h-49q-184 0 -314 145q-129 144 -129 355v77h-94q-51 0 -51 52z" />
<glyph unicode="&#x2122;" horiz-adv-x="1716" d="M0 1612q0 43 43 43h526q43 0 43 -43t-43 -43h-219v-699q0 -43 -43 -43t-43 43v699h-221q-43 0 -43 43zM717 877v735q0 32 28 41q32 10 50 -17l249 -348l246 348q15 27 47 17q31 -9 31 -41v-735q0 -43 -43 -43t-43 43v600l-203 -287q-13 -19 -35 -19q-21 0 -34 19 l-207 289v-602q0 -43 -43 -43t-43 43z" />
<glyph unicode="&#x25fc;" horiz-adv-x="1146" d="M0 0v1147h1147v-1147h-1147z" />
<glyph unicode="&#xfb01;" horiz-adv-x="903" d="M-43 1069q0 53 53 53h33v90q0 185 104 301q105 117 269 117h90q53 0 53 -53t-53 -53h-90q-119 0 -192.5 -86.5t-73.5 -225.5v-90h370q53 0 53 -53v-1024q0 -53 -53 -53t-53 53v971h-317v-971q0 -53 -54 -53q-53 0 -53 53v971h-33q-53 0 -53 53z" />
<glyph unicode="&#xfb02;" horiz-adv-x="1132" d="M-49 1077q0 53 53 53h31v91q0 183 102 297q103 115 271 118l186 2q53 0 53 -53v-1255q0 -128 64 -195q35 -35 67 -43q50 -11 41 -63q-9 -41 -51 -41q-102 0 -170 127q-57 105 -57 215v1202l-133 -2q-119 -2 -193 -86t-74 -223v-91h181q53 0 53 -53t-53 -53h-181v-969 q0 -51 -53 -51t-53 51v969h-31q-53 0 -53 53z" />
</font>
</defs>
</svg>
